<svg version="1.1" xmlns="http://www.w3.org/2000/svg" xmlns:xlink="http://www.w3.org/1999/xlink" width="1920" height="981"><defs/><g><g><g transform="scale(1,1)"><rect fill="rgb(119,181,254)" stroke="none" x="0" y="0" width="1920" height="981" fill-opacity="1"/></g><g transform="scale(0.7,0.7) translate(384,196.20000000000002)"><path fill="rgb(20,20,20)" stroke="none" paint-order="stroke fill markers" d=" M 271.7800486207125 588.6 C 271.7800486207125 512.2632287351221 333.66322873512206 450.3800486207125 410 450.3800486207125 C 486.33677126487794 450.3800486207125 548.2199513792875 512.2632287351221 548.2199513792875 588.6 C 548.2199513792875 664.936771264878 486.33677126487794 726.8199513792875 410 726.8199513792875 C 333.66322873512206 726.8199513792875 271.7800486207125 664.936771264878 271.7800486207125 588.6 Z" fill-opacity="1"/><path fill="rgb(20,20,20)" stroke="none" paint-order="stroke fill markers" d=" M 1371.7800486207125 588.6 C 1371.7800486207125 512.2632287351221 1433.663228735122 450.3800486207125 1510 450.3800486207125 C 1586.336771264878 450.3800486207125 1648.2199513792875 512.2632287351221 1648.2199513792875 588.6 C 1648.2199513792875 664.936771264878 1586.336771264878 726.8199513792875 1510 726.8199513792875 C 1433.663228735122 726.8199513792875 1371.7800486207125 664.936771264878 1371.7800486207125 588.6 Z" fill-opacity="1"/><path fill="rgb(20,20,20)" stroke="none" paint-order="stroke fill markers" d=" M 1204.759032341015 522.5513379932713 C 1204.759032341015 427.85903876714974 1281.5223079074485 351.0957632007161 1376.21460713357 351.0957632007161 C 1470.9069063596917 351.0957632007161 1547.6701819261255 427.85903876714974 1547.6701819261255 522.5513379932713 C 1547.6701819261255 617.2436372193929 1470.9069063596917 694.0069127858266 1376.21460713357 694.0069127858266 C 1281.5223079074485 694.0069127858266 1204.759032341015 617.2436372193929 1204.759032341015 522.5513379932713 Z" fill-opacity="1"/><path fill="rgb(20,20,20)" stroke="none" paint-order="stroke fill markers" d=" M 1010.6640530594088 482.48608785506167 C 1010.6640530594088 394.5872087165993 1081.9201735299223 323.33108824608576 1169.8190526683848 323.33108824608576 C 1257.7179318068472 323.33108824608576 1328.9740522773607 394.5872087165993 1328.9740522773607 482.48608785506167 C 1328.9740522773607 570.384966993524 1257.7179318068472 641.6410874640376 1169.8190526683848 641.6410874640376 C 1081.9201735299223 641.6410874640376 1010.6640530594088 570.384966993524 1010.6640530594088 482.48608785506167 Z" fill-opacity="1"/><path fill="rgb(20,20,20)" stroke="none" paint-order="stroke fill markers" d=" M 778.9887472463307 469.0579714953433 C 778.9887472463307 369.08821705729844 860.0302455619552 288.0467187416739 960.0000000000001 288.0467187416739 C 1059.969754438045 288.0467187416739 1141.0112527536694 369.08821705729844 1141.0112527536694 469.0579714953433 C 1141.0112527536694 569.0277259333882 1059.969754438045 650.0692242490127 960.0000000000001 650.0692242490127 C 860.0302455619552 650.0692242490127 778.9887472463307 569.0277259333882 778.9887472463307 469.0579714953433 Z" fill-opacity="1"/><path fill="rgb(20,20,20)" stroke="none" paint-order="stroke fill markers" d=" M 587.9022893841408 482.48608785506167 C 587.9022893841408 392.862059852661 660.5569193292145 320.2074299075873 750.1809473316151 320.2074299075873 C 839.8049753340158 320.2074299075873 912.4596052790896 392.862059852661 912.4596052790896 482.48608785506167 C 912.4596052790896 572.1101158574623 839.8049753340158 644.764745802536 750.1809473316151 644.764745802536 C 660.5569193292145 644.764745802536 587.9022893841408 572.1101158574623 587.9022893841408 482.48608785506167 Z" fill-opacity="1"/><path fill="rgb(20,20,20)" stroke="none" paint-order="stroke fill markers" d=" M 378.521360750556 522.5513379932713 C 378.521360750556 431.27853336521673 452.5125882383753 357.28730587739744 543.7853928664299 357.28730587739744 C 635.0581974944845 357.28730587739744 709.0494249823039 431.27853336521673 709.0494249823039 522.5513379932713 C 709.0494249823039 613.8241426213259 635.0581974944845 687.8153701091453 543.7853928664299 687.8153701091453 C 452.5125882383753 687.8153701091453 378.521360750556 613.8241426213259 378.521360750556 522.5513379932713 Z" fill-opacity="1"/><path fill="rgb(255,255,255)" stroke="none" paint-order="stroke fill markers" d=" M 410 456.96195106734524 L 1510 456.96195106734524 L 1510 720.2380489326548 L 410 720.2380489326548 L 410 456.96195106734524 Z" fill-opacity="1"/><path fill="rgb(255,255,255)" stroke="none" paint-order="stroke fill markers" d=" M 278.3619510673452 588.6 C 278.3619510673452 515.8983130810686 337.2983130810686 456.96195106734524 410 456.96195106734524 C 482.7016869189314 456.96195106734524 541.6380489326548 515.8983130810686 541.6380489326548 588.6 C 541.6380489326548 661.3016869189314 482.7016869189314 720.2380489326548 410 720.2380489326548 C 337.2983130810686 720.2380489326548 278.3619510673452 661.3016869189314 278.3619510673452 588.6 Z" fill-opacity="1"/><path fill="rgb(255,255,255)" stroke="none" paint-order="stroke fill markers" d=" M 1378.3619510673452 588.6 C 1378.3619510673452 515.8983130810686 1437.2983130810685 456.96195106734524 1510 456.96195106734524 C 1582.7016869189315 456.96195106734524 1641.6380489326548 515.8983130810686 1641.6380489326548 588.6 C 1641.6380489326548 661.3016869189314 1582.7016869189315 720.2380489326548 1510 720.2380489326548 C 1437.2983130810685 720.2380489326548 1378.3619510673452 661.3016869189314 1378.3619510673452 588.6 Z" fill-opacity="1"/><path fill="rgb(255,255,255)" stroke="none" paint-order="stroke fill markers" d=" M 1212.9235835216127 522.5513379932713 C 1212.9235835216127 432.36819587315557 1286.0314650134544 359.26031438131395 1376.21460713357 359.26031438131395 C 1466.3977492536858 359.26031438131395 1539.5056307455275 432.36819587315557 1539.5056307455275 522.5513379932713 C 1539.5056307455275 612.7344801133871 1466.3977492536858 685.8423616052287 1376.21460713357 685.8423616052287 C 1286.0314650134544 685.8423616052287 1212.9235835216127 612.7344801133871 1212.9235835216127 522.5513379932713 Z" fill-opacity="1"/><path fill="rgb(255,255,255)" stroke="none" paint-order="stroke fill markers" d=" M 1018.2428625645981 482.48608785506167 C 1018.2428625645981 398.77286962795466 1086.1058344412777 330.909897751275 1169.8190526683848 330.909897751275 C 1253.5322708954918 330.909897751275 1321.3952427721713 398.77286962795466 1321.3952427721713 482.48608785506167 C 1321.3952427721713 566.1993060821687 1253.5322708954918 634.0622779588482 1169.8190526683848 634.0622779588482 C 1086.1058344412777 634.0622779588482 1018.2428625645981 566.1993060821687 1018.2428625645981 482.48608785506167 Z" fill-opacity="1"/><path fill="rgb(255,255,255)" stroke="none" paint-order="stroke fill markers" d=" M 787.6083307107912 469.0579714953433 C 787.6083307107912 373.84868155434816 864.790710059005 296.66630220613433 960.0000000000001 296.66630220613433 C 1055.2092899409952 296.66630220613433 1132.391669289209 373.84868155434816 1132.391669289209 469.0579714953433 C 1132.391669289209 564.2672614363383 1055.2092899409952 641.4496407845522 960.0000000000001 641.4496407845522 C 864.790710059005 641.4496407845522 787.6083307107912 564.2672614363383 787.6083307107912 469.0579714953433 Z" fill-opacity="1"/><path fill="rgb(255,255,255)" stroke="none" paint-order="stroke fill markers" d=" M 595.6298445244967 482.48608785506167 C 595.6298445244967 397.1298707099182 664.8247301864716 327.9349850479432 750.1809473316151 327.9349850479432 C 835.5371644767587 327.9349850479432 904.7320501387336 397.1298707099182 904.7320501387336 482.48608785506167 C 904.7320501387336 567.8423050002052 835.5371644767587 637.0371906621801 750.1809473316151 637.0371906621801 C 664.8247301864716 637.0371906621801 595.6298445244967 567.8423050002052 595.6298445244967 482.48608785506167 Z" fill-opacity="1"/><path fill="rgb(255,255,255)" stroke="none" paint-order="stroke fill markers" d=" M 386.3910765655976 522.5513379932713 C 386.3910765655976 435.6248573951241 456.85891226828267 365.157021692439 543.7853928664299 365.157021692439 C 630.7118734645771 365.157021692439 701.1797091672622 435.6248573951241 701.1797091672622 522.5513379932713 C 701.1797091672622 609.4778185914186 630.7118734645771 679.9456542941036 543.7853928664299 679.9456542941036 C 456.85891226828267 679.9456542941036 386.3910765655976 609.4778185914186 386.3910765655976 522.5513379932713 Z" fill-opacity="1"/><path fill="none" stroke="rgb(20,20,20)" paint-order="fill stroke markers" d=" M 410 723.6606382049038 L 1510 723.6606382049038" stroke-opacity="1" stroke-miterlimit="10" stroke-width="5.775" stroke-dasharray=""/><g><text fill="none" stroke="rgb(20,20,20)" font-family="sans-serif" font-size="100px" font-style="normal" font-weight="100" text-decoration="normal" x="960" y="562.2723902134691" text-anchor="middle" dominant-baseline="central" stroke-opacity="1" stroke-miterlimit="10" stroke-width="0.0001" stroke-dasharray="">  </text><text fill="rgb(0,0,0)" stroke="none" font-family="sans-serif" font-size="100px" font-style="normal" font-weight="100" text-decoration="normal" x="960" y="562.2723902134691" text-anchor="middle" dominant-baseline="central" fill-opacity="1">  </text></g></g></g></g></svg>