<svg version="1.1" xmlns="http://www.w3.org/2000/svg" xmlns:xlink="http://www.w3.org/1999/xlink" width="1905" height="917"><defs/><g><g><g transform="scale(1,1)"><rect fill="rgb(119,181,254)" stroke="none" x="0" y="0" width="1905" height="917" fill-opacity="1"/></g><g transform="scale(0.7,0.7) translate(381,183.4)"><path fill="rgb(20,20,20)" stroke="none" paint-order="stroke fill markers" d=" M 264.0664103452582 550.1999999999999 C 264.0664103452582 473.745239573615 326.04523957361505 411.7664103452581 402.5 411.7664103452581 C 478.95476042638495 411.7664103452581 540.9335896547418 473.745239573615 540.9335896547418 550.1999999999999 C 540.9335896547418 626.6547604263849 478.95476042638495 688.6335896547417 402.5 688.6335896547417 C 326.04523957361505 688.6335896547417 264.0664103452582 626.6547604263849 264.0664103452582 550.1999999999999 Z" fill-opacity="1"/><path fill="rgb(20,20,20)" stroke="none" paint-order="stroke fill markers" d=" M 1364.0664103452582 550.1999999999999 C 1364.0664103452582 473.745239573615 1426.0452395736152 411.7664103452581 1502.5 411.7664103452581 C 1578.9547604263848 411.7664103452581 1640.9335896547418 473.745239573615 1640.9335896547418 550.1999999999999 C 1640.9335896547418 626.6547604263849 1578.9547604263848 688.6335896547417 1502.5 688.6335896547417 C 1426.0452395736152 688.6335896547417 1364.0664103452582 626.6547604263849 1364.0664103452582 550.1999999999999 Z" fill-opacity="1"/><path fill="rgb(20,20,20)" stroke="none" paint-order="stroke fill markers" d=" M 1161.1256827980324 478.41766972761434 C 1161.1256827980324 386.65565600723875 1235.5134926127182 312.26784619255284 1327.2755063330937 312.26784619255284 C 1419.0375200534693 312.26784619255284 1493.4253298681554 386.65565600723875 1493.4253298681554 478.41766972761434 C 1493.4253298681554 570.1796834479899 1419.0375200534693 644.5674932626757 1327.2755063330937 644.5674932626757 C 1235.5134926127182 644.5674932626757 1161.1256827980324 570.1796834479899 1161.1256827980324 478.41766972761434 Z" fill-opacity="1"/><path fill="rgb(20,20,20)" stroke="none" paint-order="stroke fill markers" d=" M 919.2241191525452 442.1476630169732 C 919.2241191525452 354.29183524243643 990.4453395969791 283.07061479800245 1078.301167371516 283.07061479800245 C 1166.1569951460526 283.07061479800245 1237.3782155904867 354.29183524243643 1237.3782155904867 442.1476630169732 C 1237.3782155904867 530.00349079151 1166.1569951460526 601.2247112359439 1078.301167371516 601.2247112359439 C 990.4453395969791 601.2247112359439 919.2241191525452 530.00349079151 919.2241191525452 442.1476630169732 Z" fill-opacity="1"/><path fill="rgb(20,20,20)" stroke="none" paint-order="stroke fill markers" d=" M 661.6541600057797 442.1476630169732 C 661.6541600057797 350.9960072917198 735.5471769032309 277.10299039426855 826.6988326284843 277.10299039426855 C 917.8504883537377 277.10299039426855 991.7435052511889 350.9960072917198 991.7435052511889 442.1476630169732 C 991.7435052511889 533.2993187422265 917.8504883537377 607.1923356396778 826.6988326284843 607.1923356396778 C 735.5471769032309 607.1923356396778 661.6541600057797 533.2993187422265 661.6541600057797 442.1476630169732 Z" fill-opacity="1"/><path fill="rgb(20,20,20)" stroke="none" paint-order="stroke fill markers" d=" M 415.0598532356171 478.4176697276141 C 415.0598532356171 388.5804694857126 487.88729342500477 315.75302929632494 577.7244936669063 315.75302929632494 C 667.5616939088077 315.75302929632494 740.3891340981954 388.5804694857126 740.3891340981954 478.4176697276141 C 740.3891340981954 568.2548699695155 667.5616939088077 641.0823101589033 577.7244936669063 641.0823101589033 C 487.88729342500477 641.0823101589033 415.0598532356171 568.2548699695155 415.0598532356171 478.4176697276141 Z" fill-opacity="1"/><path fill="rgb(255,255,255)" stroke="none" paint-order="stroke fill markers" d=" M 402.5 418.35848604310297 L 1502.5 418.35848604310297 L 1502.5 682.0415139568969 L 402.5 682.0415139568969 L 402.5 418.35848604310297 Z" fill-opacity="1"/><path fill="rgb(255,255,255)" stroke="none" paint-order="stroke fill markers" d=" M 270.65848604310304 550.1999999999999 C 270.65848604310304 477.3859424510619 329.685942451062 418.35848604310297 402.5 418.35848604310297 C 475.314057548938 418.35848604310297 534.341513956897 477.3859424510619 534.341513956897 550.1999999999999 C 534.341513956897 623.014057548938 475.314057548938 682.0415139568969 402.5 682.0415139568969 C 329.685942451062 682.0415139568969 270.65848604310304 623.014057548938 270.65848604310304 550.1999999999999 Z" fill-opacity="1"/><path fill="rgb(255,255,255)" stroke="none" paint-order="stroke fill markers" d=" M 1370.658486043103 550.1999999999999 C 1370.658486043103 477.3859424510619 1429.685942451062 418.35848604310297 1502.5 418.35848604310297 C 1575.314057548938 418.35848604310297 1634.341513956897 477.3859424510619 1634.341513956897 550.1999999999999 C 1634.341513956897 623.014057548938 1575.314057548938 682.0415139568969 1502.5 682.0415139568969 C 1429.685942451062 682.0415139568969 1370.658486043103 623.014057548938 1370.658486043103 550.1999999999999 Z" fill-opacity="1"/><path fill="rgb(255,255,255)" stroke="none" paint-order="stroke fill markers" d=" M 1169.0375791568447 478.41766972761434 C 1169.0375791568447 391.02527570820905 1239.8831123136883 320.17974255136534 1327.2755063330937 320.17974255136534 C 1414.6679003524991 320.17974255136534 1485.5134335093426 391.02527570820905 1485.5134335093426 478.41766972761434 C 1485.5134335093426 565.8100637470196 1414.6679003524991 636.6555969038634 1327.2755063330937 636.6555969038634 C 1239.8831123136883 636.6555969038634 1169.0375791568447 565.8100637470196 1169.0375791568447 478.41766972761434 Z" fill-opacity="1"/><path fill="rgb(255,255,255)" stroke="none" paint-order="stroke fill markers" d=" M 926.799216686782 442.1476630169732 C 926.799216686782 358.47544608884294 994.6289504433856 290.6457123322392 1078.301167371516 290.6457123322392 C 1161.973384299646 290.6457123322392 1229.80311805625 358.47544608884294 1229.80311805625 442.1476630169732 C 1229.80311805625 525.8198799451035 1161.973384299646 593.6496137017073 1078.301167371516 593.6496137017073 C 994.6289504433856 593.6496137017073 926.799216686782 525.8198799451035 926.799216686782 442.1476630169732 Z" fill-opacity="1"/><path fill="rgb(255,255,255)" stroke="none" paint-order="stroke fill markers" d=" M 669.5134301306704 442.1476630169732 C 669.5134301306704 355.3365623262557 739.8877319377668 284.96226051915926 826.6988326284843 284.96226051915926 C 913.5099333192018 284.96226051915926 983.8842351262982 355.3365623262557 983.8842351262982 442.1476630169732 C 983.8842351262982 528.9587637076907 913.5099333192018 599.3330655147871 826.6988326284843 599.3330655147871 C 739.8877319377668 599.3330655147871 669.5134301306704 528.9587637076907 669.5134301306704 442.1476630169732 Z" fill-opacity="1"/><path fill="rgb(255,255,255)" stroke="none" paint-order="stroke fill markers" d=" M 422.8057884942499 478.4176697276141 C 422.8057884942499 392.85843140199364 492.1652553412858 323.49896455495775 577.7244936669063 323.49896455495775 C 663.2837319925268 323.49896455495775 732.6431988395625 392.85843140199364 732.6431988395625 478.4176697276141 C 732.6431988395625 563.9769080532346 663.2837319925268 633.3363749002704 577.7244936669063 633.3363749002704 C 492.1652553412858 633.3363749002704 422.8057884942499 563.9769080532346 422.8057884942499 478.4176697276141 Z" fill-opacity="1"/><path fill="none" stroke="rgb(20,20,20)" paint-order="fill stroke markers" d=" M 402.5 685.4693933197761 L 1502.5 685.4693933197761" stroke-opacity="1" stroke-miterlimit="10" stroke-width="5.775" stroke-dasharray=""/><g><text fill="none" stroke="rgb(20,20,20)" font-family="sans-serif" font-size="100px" font-style="normal" font-weight="100" text-decoration="normal" x="952.5" y="523.8316972086205" text-anchor="middle" dominant-baseline="central" stroke-opacity="1" stroke-miterlimit="10" stroke-width="0.0001" stroke-dasharray="">  </text><text fill="rgb(0,0,0)" stroke="none" font-family="sans-serif" font-size="100px" font-style="normal" font-weight="100" text-decoration="normal" x="952.5" y="523.8316972086205" text-anchor="middle" dominant-baseline="central" fill-opacity="1">  </text></g></g></g></g></svg>