<svg version="1.1" xmlns="http://www.w3.org/2000/svg" xmlns:xlink="http://www.w3.org/1999/xlink" width="1905" height="917"><defs/><g><g><g transform="scale(1,1)"><rect fill="rgb(119,181,254)" stroke="none" x="0" y="0" width="1905" height="917" fill-opacity="1"/></g><g transform="scale(0.7,0.7) translate(381,183.4)"><path fill="rgb(20,20,20)" stroke="none" paint-order="stroke fill markers" d=" M 264.3003951231367 550.1999999999999 C 264.3003951231367 473.8744657981226 326.1744657981227 412.0003951231366 402.5 412.0003951231366 C 478.8255342018773 412.0003951231366 540.6996048768633 473.8744657981226 540.6996048768633 550.1999999999999 C 540.6996048768633 626.5255342018772 478.8255342018773 688.3996048768632 402.5 688.3996048768632 C 326.1744657981227 688.3996048768632 264.3003951231367 626.5255342018772 264.3003951231367 550.1999999999999 Z" fill-opacity="1"/><path fill="rgb(20,20,20)" stroke="none" paint-order="stroke fill markers" d=" M 1364.3003951231367 550.1999999999999 C 1364.3003951231367 473.8744657981226 1426.1744657981226 412.0003951231366 1502.5 412.0003951231366 C 1578.8255342018774 412.0003951231366 1640.6996048768633 473.8744657981226 1640.6996048768633 550.1999999999999 C 1640.6996048768633 626.5255342018772 1578.8255342018774 688.3996048768632 1502.5 688.3996048768632 C 1426.1744657981226 688.3996048768632 1364.3003951231367 626.5255342018772 1364.3003951231367 550.1999999999999 Z" fill-opacity="1"/><path fill="rgb(20,20,20)" stroke="none" paint-order="stroke fill markers" d=" M 1164.244479622658 435.5618047680098 C 1164.244479622658 341.097850196241 1240.8226452723459 264.5196845465529 1335.2865998441148 264.5196845465529 C 1429.7505544158837 264.5196845465529 1506.3287200655718 341.097850196241 1506.3287200655718 435.5618047680098 C 1506.3287200655718 530.0257593397786 1429.7505544158837 606.6039249894666 1335.2865998441148 606.6039249894666 C 1240.8226452723459 606.6039249894666 1164.244479622658 530.0257593397786 1164.244479622658 435.5618047680098 Z" fill-opacity="1"/><path fill="rgb(20,20,20)" stroke="none" paint-order="stroke fill markers" d=" M 889.476634225509 376.71172543327975 C 889.476634225509 270.19207791634096 975.8278699902704 183.84084215157955 1082.3475175072092 183.84084215157955 C 1188.867165024148 183.84084215157955 1275.2184007889093 270.19207791634096 1275.2184007889093 376.71172543327975 C 1275.2184007889093 483.23137295021854 1188.867165024148 569.58260871498 1082.3475175072092 569.58260871498 C 975.8278699902704 569.58260871498 889.476634225509 483.23137295021854 889.476634225509 376.71172543327975 Z" fill-opacity="1"/><path fill="rgb(20,20,20)" stroke="none" paint-order="stroke fill markers" d=" M 617.2040353470364 376.71172543327975 C 617.2040353470364 263.2456812045882 709.1864382640994 171.26327828752525 822.6524824927909 171.26327828752525 C 936.1185267214825 171.26327828752525 1028.1009296385455 263.2456812045882 1028.1009296385455 376.71172543327975 C 1028.1009296385455 490.1777696619713 936.1185267214825 582.1601725790342 822.6524824927909 582.1601725790342 C 709.1864382640994 582.1601725790342 617.2040353470364 490.1777696619713 617.2040353470364 376.71172543327975 Z" fill-opacity="1"/><path fill="rgb(20,20,20)" stroke="none" paint-order="stroke fill markers" d=" M 404.21389146852647 435.5618047680098 C 404.21389146852647 344.1589500205889 478.31054540846435 270.06229608065104 569.7134001558852 270.06229608065104 C 661.1162549033061 270.06229608065104 735.2129088432439 344.1589500205889 735.2129088432439 435.5618047680098 C 735.2129088432439 526.9646595154306 661.1162549033061 601.0613134553685 569.7134001558852 601.0613134553685 C 478.31054540846435 601.0613134553685 404.21389146852647 526.9646595154306 404.21389146852647 435.5618047680098 Z" fill-opacity="1"/><path fill="rgb(255,255,255)" stroke="none" paint-order="stroke fill markers" d=" M 402.5 418.58132868870155 L 1502.5 418.58132868870155 L 1502.5 681.8186713112983 L 402.5 681.8186713112983 L 402.5 418.58132868870155 Z" fill-opacity="1"/><path fill="rgb(255,255,255)" stroke="none" paint-order="stroke fill markers" d=" M 270.8813286887016 550.1999999999999 C 270.8813286887016 477.50901504583106 329.80901504583113 418.58132868870155 402.5 418.58132868870155 C 475.19098495416887 418.58132868870155 534.1186713112984 477.50901504583106 534.1186713112984 550.1999999999999 C 534.1186713112984 622.8909849541687 475.19098495416887 681.8186713112983 402.5 681.8186713112983 C 329.80901504583113 681.8186713112983 270.8813286887016 622.8909849541687 270.8813286887016 550.1999999999999 Z" fill-opacity="1"/><path fill="rgb(255,255,255)" stroke="none" paint-order="stroke fill markers" d=" M 1370.8813286887016 550.1999999999999 C 1370.8813286887016 477.50901504583106 1429.809015045831 418.58132868870155 1502.5 418.58132868870155 C 1575.190984954169 418.58132868870155 1634.1186713112984 477.50901504583106 1634.1186713112984 550.1999999999999 C 1634.1186713112984 622.8909849541687 1575.190984954169 681.8186713112983 1502.5 681.8186713112983 C 1429.809015045831 681.8186713112983 1370.8813286887016 622.8909849541687 1370.8813286887016 550.1999999999999 Z" fill-opacity="1"/><path fill="rgb(255,255,255)" stroke="none" paint-order="stroke fill markers" d=" M 1172.3893424903463 435.5618047680098 C 1172.3893424903463 345.5961337472776 1245.3209288233825 272.6645474142414 1335.2865998441148 272.6645474142414 C 1425.252270864847 272.6645474142414 1498.183857197883 345.5961337472776 1498.183857197883 435.5618047680098 C 1498.183857197883 525.527475788742 1425.252270864847 598.4590621217783 1335.2865998441148 598.4590621217783 C 1245.3209288233825 598.4590621217783 1172.3893424903463 525.527475788742 1172.3893424903463 435.5618047680098 Z" fill-opacity="1"/><path fill="rgb(255,255,255)" stroke="none" paint-order="stroke fill markers" d=" M 898.660962000828 376.71172543327975 C 898.660962000828 275.26444208381423 980.9002341577437 193.02516992689863 1082.3475175072092 193.02516992689863 C 1183.7948008566748 193.02516992689863 1266.0340730135904 275.26444208381423 1266.0340730135904 376.71172543327975 C 1266.0340730135904 478.1590087827453 1183.7948008566748 560.3982809396609 1082.3475175072092 560.3982809396609 C 980.9002341577437 560.3982809396609 898.660962000828 478.1590087827453 898.660962000828 376.71172543327975 Z" fill-opacity="1"/><path fill="rgb(255,255,255)" stroke="none" paint-order="stroke fill markers" d=" M 626.9872947349295 376.71172543327975 C 626.9872947349295 268.6488261678592 714.5895832273704 181.04653767541834 822.6524824927909 181.04653767541834 C 930.7153817582114 181.04653767541834 1018.3176702506523 268.6488261678592 1018.3176702506523 376.71172543327975 C 1018.3176702506523 484.7746246987003 930.7153817582114 572.3769131911412 822.6524824927909 572.3769131911412 C 714.5895832273704 572.3769131911412 626.9872947349295 484.7746246987003 626.9872947349295 376.71172543327975 Z" fill-opacity="1"/><path fill="rgb(255,255,255)" stroke="none" paint-order="stroke fill markers" d=" M 412.0948204536388 435.5618047680098 C 412.0948204536388 348.51146691332326 482.6630623011987 277.9432250657634 569.7134001558852 277.9432250657634 C 656.7637380105717 277.9432250657634 727.3319798581317 348.51146691332326 727.3319798581317 435.5618047680098 C 727.3319798581317 522.6121426226963 656.7637380105717 593.1803844702563 569.7134001558852 593.1803844702563 C 482.6630623011987 593.1803844702563 412.0948204536388 522.6121426226963 412.0948204536388 435.5618047680098 Z" fill-opacity="1"/><path fill="none" stroke="rgb(20,20,20)" paint-order="fill stroke markers" d=" M 402.5 685.240756765392 L 1502.5 685.240756765392" stroke-opacity="1" stroke-miterlimit="10" stroke-width="5.775" stroke-dasharray=""/><g><text fill="none" stroke="rgb(20,20,20)" font-family="sans-serif" font-size="100px" font-style="normal" font-weight="100" text-decoration="normal" x="952.5" y="523.8762657377403" text-anchor="middle" dominant-baseline="central" stroke-opacity="1" stroke-miterlimit="10" stroke-width="0.0001" stroke-dasharray="">  </text><text fill="rgb(0,0,0)" stroke="none" font-family="sans-serif" font-size="100px" font-style="normal" font-weight="100" text-decoration="normal" x="952.5" y="523.8762657377403" text-anchor="middle" dominant-baseline="central" fill-opacity="1">  </text></g></g></g></g></svg>