<svg version="1.1" xmlns="http://www.w3.org/2000/svg" xmlns:xlink="http://www.w3.org/1999/xlink" width="1905" height="917"><defs/><g><g><g transform="scale(1,1)"><rect fill="rgb(119,181,254)" stroke="none" x="0" y="0" width="1905" height="917" fill-opacity="1"/></g><g transform="scale(0.7,0.7) translate(381,183.4)"><path fill="rgb(20,20,20)" stroke="none" paint-order="stroke fill markers" d=" M 264.34108812798513 550.1999999999999 C 264.34108812798513 473.89693992412396 326.196939924124 412.04108812798506 402.5 412.04108812798506 C 478.803060075876 412.04108812798506 540.6589118720149 473.89693992412396 540.6589118720149 550.1999999999999 C 540.6589118720149 626.503060075876 478.803060075876 688.3589118720148 402.5 688.3589118720148 C 326.196939924124 688.3589118720148 264.34108812798513 626.503060075876 264.34108812798513 550.1999999999999 Z" fill-opacity="1"/><path fill="rgb(20,20,20)" stroke="none" paint-order="stroke fill markers" d=" M 1364.3410881279851 550.1999999999999 C 1364.3410881279851 473.89693992412396 1426.196939924124 412.04108812798506 1502.5 412.04108812798506 C 1578.803060075876 412.04108812798506 1640.6589118720149 473.89693992412396 1640.6589118720149 550.1999999999999 C 1640.6589118720149 626.503060075876 1578.803060075876 688.3589118720148 1502.5 688.3589118720148 C 1426.196939924124 688.3589118720148 1364.3410881279851 626.503060075876 1364.3410881279851 550.1999999999999 Z" fill-opacity="1"/><path fill="rgb(20,20,20)" stroke="none" paint-order="stroke fill markers" d=" M 1207.343176813461 465.59213012578493 C 1207.343176813461 374.47230904176774 1281.210386635176 300.60509922005264 1372.3302077191934 300.60509922005264 C 1463.4500288032107 300.60509922005264 1537.3172386249257 374.47230904176774 1537.3172386249257 465.59213012578493 C 1537.3172386249257 556.7119512098021 1463.4500288032107 630.5791610315173 1372.3302077191934 630.5791610315173 C 1281.210386635176 630.5791610315173 1207.343176813461 556.7119512098021 1207.343176813461 465.59213012578493 Z" fill-opacity="1"/><path fill="rgb(20,20,20)" stroke="none" paint-order="stroke fill markers" d=" M 1006.0265524771701 413.9128661449381 C 1006.0265524771701 325.9838605062852 1077.3070953015063 254.70331768194907 1165.236100940159 254.70331768194907 C 1253.165106578812 254.70331768194907 1324.445649403148 325.9838605062852 1324.445649403148 413.9128661449381 C 1324.445649403148 501.841871783591 1253.165106578812 573.1224146079271 1165.236100940159 573.1224146079271 C 1077.3070953015063 573.1224146079271 1006.0265524771701 501.841871783591 1006.0265524771701 413.9128661449381 Z" fill-opacity="1"/><path fill="rgb(20,20,20)" stroke="none" paint-order="stroke fill markers" d=" M 744.5176703785548 396.53279868285153 C 744.5176703785548 281.66732980505043 837.6345311221992 188.55046906140615 952.5000000000002 188.55046906140615 C 1067.3654688778013 188.55046906140615 1160.4823296214456 281.66732980505043 1160.4823296214456 396.53279868285153 C 1160.4823296214456 511.39826756065264 1067.3654688778013 604.5151283042969 952.5000000000002 604.5151283042969 C 837.6345311221992 604.5151283042969 744.5176703785548 511.39826756065264 744.5176703785548 396.53279868285153 Z" fill-opacity="1"/><path fill="rgb(20,20,20)" stroke="none" paint-order="stroke fill markers" d=" M 558.2230165856813 413.9128661449379 C 558.2230165856813 313.65060528922515 639.5016382041288 232.37198367077772 739.7638990598415 232.37198367077772 C 840.0261599155542 232.37198367077772 921.3047815340017 313.65060528922515 921.3047815340017 413.9128661449379 C 921.3047815340017 514.1751270006506 840.0261599155542 595.4537486190981 739.7638990598415 595.4537486190981 C 639.5016382041288 595.4537486190981 558.2230165856813 514.1751270006506 558.2230165856813 413.9128661449379 Z" fill-opacity="1"/><path fill="rgb(20,20,20)" stroke="none" paint-order="stroke fill markers" d=" M 352.89065166104234 465.59213012578493 C 352.89065166104234 366.30285242933917 433.3805145843613 285.8129895060202 532.6697922808071 285.8129895060202 C 631.9590699772529 285.8129895060202 712.4489329005719 366.30285242933917 712.4489329005719 465.59213012578493 C 712.4489329005719 564.8814078222307 631.9590699772529 645.3712707455497 532.6697922808071 645.3712707455497 C 433.3805145843613 645.3712707455497 352.89065166104234 564.8814078222307 352.89065166104234 465.59213012578493 Z" fill-opacity="1"/><path fill="rgb(255,255,255)" stroke="none" paint-order="stroke fill markers" d=" M 402.5 418.62008393141434 L 1502.5 418.62008393141434 L 1502.5 681.7799160685855 L 402.5 681.7799160685855 L 402.5 418.62008393141434 Z" fill-opacity="1"/><path fill="rgb(255,255,255)" stroke="none" paint-order="stroke fill markers" d=" M 270.9200839314144 550.1999999999999 C 270.9200839314144 477.53041897535616 329.8304189753562 418.62008393141434 402.5 418.62008393141434 C 475.1695810246438 418.62008393141434 534.0799160685856 477.53041897535616 534.0799160685856 550.1999999999999 C 534.0799160685856 622.8695810246437 475.1695810246438 681.7799160685855 402.5 681.7799160685855 C 329.8304189753562 681.7799160685855 270.9200839314144 622.8695810246437 270.9200839314144 550.1999999999999 Z" fill-opacity="1"/><path fill="rgb(255,255,255)" stroke="none" paint-order="stroke fill markers" d=" M 1370.9200839314144 550.1999999999999 C 1370.9200839314144 477.53041897535616 1429.8304189753562 418.62008393141434 1502.5 418.62008393141434 C 1575.1695810246438 418.62008393141434 1634.0799160685856 477.53041897535616 1634.0799160685856 550.1999999999999 C 1634.0799160685856 622.8695810246437 1575.1695810246438 681.7799160685855 1502.5 681.7799160685855 C 1429.8304189753562 681.7799160685855 1370.9200839314144 622.8695810246437 1370.9200839314144 550.1999999999999 Z" fill-opacity="1"/><path fill="rgb(255,255,255)" stroke="none" paint-order="stroke fill markers" d=" M 1215.1997020946865 465.59213012578493 C 1215.1997020946865 378.81134814100665 1285.549425734415 308.461624501278 1372.3302077191934 308.461624501278 C 1459.1109897039717 308.461624501278 1529.4607133437003 378.81134814100665 1529.4607133437003 465.59213012578493 C 1529.4607133437003 552.3729121105632 1459.1109897039717 622.7226357502918 1372.3302077191934 622.7226357502918 C 1285.549425734415 622.7226357502918 1215.1997020946865 552.3729121105632 1215.1997020946865 465.59213012578493 Z" fill-opacity="1"/><path fill="rgb(255,255,255)" stroke="none" paint-order="stroke fill markers" d=" M 1013.6079595468361 413.9128661449381 C 1013.6079595468361 330.17095601288776 1081.4941908081087 262.2847247516152 1165.236100940159 262.2847247516152 C 1248.9780110722095 262.2847247516152 1316.8642423334818 330.17095601288776 1316.8642423334818 413.9128661449381 C 1316.8642423334818 497.65477627698846 1248.9780110722095 565.541007538261 1165.236100940159 565.541007538261 C 1081.4941908081087 565.541007538261 1013.6079595468361 497.65477627698846 1013.6079595468361 413.9128661449381 Z" fill-opacity="1"/><path fill="rgb(255,255,255)" stroke="none" paint-order="stroke fill markers" d=" M 754.4215908367189 396.53279868285153 C 754.4215908367189 287.1371140373267 843.1043153544754 198.4543895195702 952.5000000000002 198.4543895195702 C 1061.895684645525 198.4543895195702 1150.5784091632815 287.1371140373267 1150.5784091632815 396.53279868285153 C 1150.5784091632815 505.9284833283764 1061.895684645525 594.6112078461329 952.5000000000002 594.6112078461329 C 843.1043153544754 594.6112078461329 754.4215908367189 505.9284833283764 754.4215908367189 396.53279868285153 Z" fill-opacity="1"/><path fill="rgb(255,255,255)" stroke="none" paint-order="stroke fill markers" d=" M 566.8678205130223 413.9128661449379 C 566.8678205130223 318.4249986633067 644.2760315782102 241.0167875981187 739.7638990598414 241.0167875981187 C 835.2517665414725 241.0167875981187 912.6599776066606 318.4249986633067 912.6599776066606 413.9128661449379 C 912.6599776066606 509.40073362656904 835.2517665414725 586.808944691757 739.7638990598414 586.808944691757 C 644.2760315782102 586.808944691757 566.8678205130223 509.40073362656904 566.8678205130223 413.9128661449379 Z" fill-opacity="1"/><path fill="rgb(255,255,255)" stroke="none" paint-order="stroke fill markers" d=" M 361.4515631191264 465.59213012578493 C 361.4515631191264 371.0309132720271 438.10857542704923 294.3739009641042 532.6697922808071 294.3739009641042 C 627.2310091345649 294.3739009641042 703.8880214424878 371.0309132720271 703.8880214424878 465.59213012578493 C 703.8880214424878 560.1533469795428 627.2310091345649 636.8103592874656 532.6697922808071 636.8103592874656 C 438.10857542704923 636.8103592874656 361.4515631191264 560.1533469795428 361.4515631191264 465.59213012578493 Z" fill-opacity="1"/><path fill="none" stroke="rgb(20,20,20)" paint-order="fill stroke markers" d=" M 402.5 685.2009938863687 L 1502.5 685.2009938863687" stroke-opacity="1" stroke-miterlimit="10" stroke-width="5.775" stroke-dasharray=""/><g><text fill="none" stroke="rgb(20,20,20)" font-family="sans-serif" font-size="100px" font-style="normal" font-weight="100" text-decoration="normal" x="952.5" y="523.8840167862828" text-anchor="middle" dominant-baseline="central" stroke-opacity="1" stroke-miterlimit="10" stroke-width="0.0001" stroke-dasharray="">  </text><text fill="rgb(0,0,0)" stroke="none" font-family="sans-serif" font-size="100px" font-style="normal" font-weight="100" text-decoration="normal" x="952.5" y="523.8840167862828" text-anchor="middle" dominant-baseline="central" fill-opacity="1">  </text></g></g></g></g></svg>