<?xml version="1.0" encoding="UTF-8" standalone="no"?>
<svg
   xmlns:dc="http://purl.org/dc/elements/1.1/"
   xmlns:cc="http://creativecommons.org/ns#"
   xmlns:rdf="http://www.w3.org/1999/02/22-rdf-syntax-ns#"
   xmlns:svg="http://www.w3.org/2000/svg"
   xmlns="http://www.w3.org/2000/svg"
   xml:space="preserve"
   enable-background="new 0 0 1400 980"
   viewBox="0 0 291.17499 291.17499"
   height="291.17499"
   width="291.17499"
   y="0px"
   x="0px"
   id="Layer_1"
   version="1.1"><metadata
   id="metadata181"><rdf:RDF><cc:Work
       rdf:about=""><dc:format>image/svg+xml</dc:format><dc:type
         rdf:resource="http://purl.org/dc/dcmitype/StillImage" /><dc:title></dc:title></cc:Work></rdf:RDF></metadata><defs
   id="defs179"><clipPath
     id="clipPath994"
     clipPathUnits="userSpaceOnUse"><rect
       y="79.93644"
       x="32.182205"
       height="372.69067"
       width="667.52118"
       id="rect996"
       style="fill:#222b00" /></clipPath><clipPath
     id="clipPath998"
     clipPathUnits="userSpaceOnUse"><rect
       y="79.93644"
       x="32.182205"
       height="372.69067"
       width="667.52118"
       id="rect1000"
       style="fill:#222b00" /></clipPath><clipPath
     id="clipPath1002"
     clipPathUnits="userSpaceOnUse"><rect
       y="79.93644"
       x="32.182205"
       height="372.69067"
       width="667.52118"
       id="rect1004"
       style="fill:#222b00" /></clipPath><clipPath
     id="clipPath1006"
     clipPathUnits="userSpaceOnUse"><rect
       y="79.93644"
       x="32.182205"
       height="372.69067"
       width="667.52118"
       id="rect1008"
       style="fill:#222b00" /></clipPath><clipPath
     id="clipPath1010"
     clipPathUnits="userSpaceOnUse"><rect
       y="79.93644"
       x="32.182205"
       height="372.69067"
       width="667.52118"
       id="rect1012"
       style="fill:#222b00" /></clipPath><clipPath
     id="clipPath1014"
     clipPathUnits="userSpaceOnUse"><rect
       y="79.93644"
       x="32.182205"
       height="372.69067"
       width="667.52118"
       id="rect1016"
       style="fill:#222b00" /></clipPath><clipPath
     id="clipPath1018"
     clipPathUnits="userSpaceOnUse"><rect
       y="79.93644"
       x="32.182205"
       height="372.69067"
       width="667.52118"
       id="rect1020"
       style="fill:#222b00" /></clipPath><clipPath
     id="clipPath1022"
     clipPathUnits="userSpaceOnUse"><rect
       y="79.93644"
       x="32.182205"
       height="372.69067"
       width="667.52118"
       id="rect1024"
       style="fill:#222b00" /></clipPath><clipPath
     id="clipPath1026"
     clipPathUnits="userSpaceOnUse"><rect
       y="79.93644"
       x="32.182205"
       height="372.69067"
       width="667.52118"
       id="rect1028"
       style="fill:#222b00" /></clipPath><clipPath
     id="clipPath1030"
     clipPathUnits="userSpaceOnUse"><rect
       y="79.93644"
       x="32.182205"
       height="372.69067"
       width="667.52118"
       id="rect1032"
       style="fill:#222b00" /></clipPath><clipPath
     id="clipPath1034"
     clipPathUnits="userSpaceOnUse"><rect
       y="79.93644"
       x="32.182205"
       height="372.69067"
       width="667.52118"
       id="rect1036"
       style="fill:#222b00" /></clipPath><clipPath
     id="clipPath1038"
     clipPathUnits="userSpaceOnUse"><rect
       y="79.93644"
       x="32.182205"
       height="372.69067"
       width="667.52118"
       id="rect1040"
       style="fill:#222b00" /></clipPath><clipPath
     id="clipPath1042"
     clipPathUnits="userSpaceOnUse"><rect
       y="79.93644"
       x="32.182205"
       height="372.69067"
       width="667.52118"
       id="rect1044"
       style="fill:#222b00" /></clipPath><clipPath
     id="clipPath1046"
     clipPathUnits="userSpaceOnUse"><rect
       y="79.93644"
       x="32.182205"
       height="372.69067"
       width="667.52118"
       id="rect1048"
       style="fill:#222b00" /></clipPath></defs>
<g
   transform="translate(-61.375,-127.37574)"
   clip-path="url(#clipPath1046)"
   id="g6">
	
	<circle
   style="fill:#f7bc00"
   id="circle4"
   r="92"
   cy="275.20001"
   cx="206.89999" />
</g>
<g
   transform="translate(-61.375,-127.37574)"
   clip-path="url(#clipPath1042)"
   id="g12">
	<path
   style="fill:#ffe817"
   id="path8"
   d="m 1015.9,271.6 -24.5,-14.3 c -2.2,-1.3 -2.7,-4.2 -1.1,-6.1 l 18.1,-21.8 c 2,-2.4 0.7,-6.1 -2.4,-6.6 l -27.9,-5.1 c -2.5,-0.5 -4,-3 -3.1,-5.4 l 9.6,-26.7 c 1.1,-2.9 -1.5,-5.9 -4.5,-5.4 l -28,4.8 c -2.5,0.4 -4.8,-1.5 -4.8,-4 l -0.1,-28.4 c 0,-3.1 -3.4,-5.1 -6.1,-3.5 l -24.7,14.1 c -2.2,1.2 -5,0.2 -5.9,-2.1 l -9.8,-26.6 c -1.1,-2.9 -4.9,-3.6 -6.9,-1.2 l -18.4,21.6 c -1.6,1.9 -4.6,1.9 -6.2,0 l -18.4,-21.6 c -2,-2.4 -5.9,-1.7 -6.9,1.2 L 834,161 c -0.9,2.4 -3.7,3.4 -5.9,2.1 L 803.5,149 c -2.7,-1.5 -6.1,0.4 -6.1,3.5 l -0.1,28.4 c 0,2.5 -2.3,4.4 -4.8,4 l -28,-4.8 c -3.1,-0.5 -5.6,2.5 -4.5,5.4 l 9.6,26.7 c 0.9,2.4 -0.6,4.9 -3.1,5.4 l -27.9,5.1 c -3.1,0.6 -4.4,4.2 -2.4,6.6 l 18.1,21.8 c 1.6,1.9 1.1,4.9 -1.1,6.1 l -24.5,14.3 c -2.7,1.6 -2.7,5.5 0,7 l 24.5,14.3 c 2.2,1.3 2.7,4.2 1.1,6.1 L 736.1,321 c -2,2.4 -0.7,6.1 2.4,6.6 l 27.9,5.1 c 2.5,0.5 4,3 3.1,5.4 l -9.6,26.7 c -1.1,2.9 1.5,5.9 4.5,5.4 l 28,-4.8 c 2.5,-0.4 4.8,1.5 4.8,4 l 0.1,28.4 c 0,3.1 3.4,5.1 6.1,3.5 l 24.7,-14.1 c 2.2,-1.2 5,-0.2 5.9,2.1 l 9.8,26.6 c 1.1,2.9 4.9,3.6 6.9,1.2 l 18.4,-21.6 c 1.6,-1.9 4.6,-1.9 6.2,0 l 18.4,21.6 c 2,2.4 5.9,1.7 6.9,-1.2 l 9.8,-26.6 c 0.9,-2.4 3.7,-3.4 5.9,-2.1 l 24.7,14.1 c 2.7,1.5 6.1,-0.4 6.1,-3.5 l 0.1,-28.4 c 0,-2.5 2.3,-4.4 4.8,-4 l 28,4.8 c 3.1,0.5 5.6,-2.5 4.5,-5.4 l -9.6,-26.7 c -0.9,-2.4 0.6,-4.9 3.1,-5.4 l 27.9,-5.1 c 3.1,-0.6 4.4,-4.2 2.4,-6.6 l -18.1,-21.8 c -1.6,-1.9 -1.1,-4.9 1.1,-6.1 l 24.5,-14.3 c 2.8,-1.7 2.8,-5.6 0.1,-7.2 z M 872.3,381.1 c -58.5,0 -105.9,-47.4 -105.9,-105.9 0,-58.5 47.4,-105.9 105.9,-105.9 58.5,0 105.9,47.4 105.9,105.9 0,58.4 -47.5,105.9 -105.9,105.9 z" />
	<circle
   style="fill:#f7bc00"
   id="circle10"
   r="92"
   cy="275.20001"
   cx="872.29999" />
</g>
<g
   transform="translate(-61.375,-127.37574)"
   clip-path="url(#clipPath1038)"
   id="g18">
	<path
   style="fill:#ffe817"
   id="path14"
   d="M 1348.5,271.6 1324,257.3 c -2.2,-1.3 -2.7,-4.2 -1.1,-6.1 l 18.1,-21.8 c 2,-2.4 0.7,-6.1 -2.4,-6.6 l -27.9,-5.1 c -2.5,-0.5 -4,-3 -3.1,-5.4 l 9.6,-26.7 c 1.1,-2.9 -1.5,-5.9 -4.5,-5.4 l -28,4.8 c -2.5,0.4 -4.8,-1.5 -4.8,-4 l -0.1,-28.4 c 0,-3.1 -3.4,-5.1 -6.1,-3.5 l -24.7,14.1 c -2.2,1.2 -5,0.2 -5.9,-2.1 l -9.8,-26.6 c -1.1,-2.9 -4.9,-3.6 -6.9,-1.2 l -18.4,21.6 c -1.6,1.9 -4.6,1.9 -6.2,0 l -18.4,-21.6 c -2,-2.4 -5.9,-1.7 -6.9,1.2 l -9.8,26.6 c -0.9,2.4 -3.7,3.4 -5.9,2.1 l -24.7,-14.1 c -2.7,-1.5 -6.1,0.4 -6.1,3.5 l -0.1,28.4 c 0,2.5 -2.3,4.4 -4.8,4 l -28,-4.8 c -3.1,-0.5 -5.6,2.5 -4.5,5.4 l 9.6,26.7 c 0.9,2.4 -0.6,4.9 -3.1,5.4 l -27.9,5.1 c -3.1,0.6 -4.4,4.2 -2.4,6.6 l 18.1,21.8 c 1.6,1.9 1.1,4.9 -1.1,6.1 l -24.5,14.3 c -2.7,1.6 -2.7,5.5 0,7 l 24.5,14.3 c 2.2,1.3 2.7,4.2 1.1,6.1 l -18.1,21.8 c -2,2.4 -0.7,6.1 2.4,6.6 l 27.9,5.1 c 2.5,0.5 4,3 3.1,5.4 l -9.6,26.7 c -1.1,2.9 1.5,5.9 4.5,5.4 l 28,-4.8 c 2.5,-0.4 4.8,1.5 4.8,4 l 0.1,28.4 c 0,3.1 3.4,5.1 6.1,3.5 l 24.7,-14.1 c 2.2,-1.2 5,-0.2 5.9,2.1 l 9.8,26.6 c 1.1,2.9 4.9,3.6 6.9,1.2 l 18.4,-21.6 c 1.6,-1.9 4.6,-1.9 6.2,0 l 18.4,21.6 c 2,2.4 5.9,1.7 6.9,-1.2 l 9.8,-26.6 c 0.9,-2.4 3.7,-3.4 5.9,-2.1 l 24.7,14.1 c 2.7,1.5 6.1,-0.4 6.1,-3.5 l 0.1,-28.4 c 0,-2.5 2.3,-4.4 4.8,-4 l 28,4.8 c 3.1,0.5 5.6,-2.5 4.5,-5.4 l -9.6,-26.7 c -0.9,-2.4 0.6,-4.9 3.1,-5.4 l 27.9,-5.1 c 3.1,-0.6 4.4,-4.2 2.4,-6.6 L 1322.9,299 c -1.6,-1.9 -1.1,-4.9 1.1,-6.1 l 24.5,-14.3 c 2.7,-1.5 2.7,-5.4 0,-7 z m -143.6,109.5 c -58.5,0 -105.9,-47.4 -105.9,-105.9 0,-58.5 47.4,-105.9 105.9,-105.9 58.5,0 105.9,47.4 105.9,105.9 0,58.4 -47.4,105.9 -105.9,105.9 z" />
	<circle
   style="fill:#f7bc00"
   id="circle16"
   r="92"
   cy="275.20001"
   cx="1204.9" />
</g>
<g
   transform="translate(-61.375,-127.37574)"
   clip-path="url(#clipPath1034)"
   id="g24">
	<path
   style="fill:#ffe817"
   id="path20"
   d="M 350.6,681.9 326,667.5 c -2.2,-1.3 -2.7,-4.2 -1.1,-6.1 L 343,639.6 c 2,-2.4 0.7,-6.1 -2.4,-6.6 l -27.9,-5.1 c -2.5,-0.5 -4,-3 -3.1,-5.4 l 9.6,-26.7 c 1.1,-2.9 -1.5,-5.9 -4.5,-5.4 l -28,4.8 c -2.5,0.4 -4.8,-1.5 -4.8,-4 l -0.1,-28.4 c 0,-3.1 -3.4,-5.1 -6.1,-3.5 l -24.7,14 c -2.2,1.2 -5,0.2 -5.9,-2.1 l -9.8,-26.6 c -1.1,-2.9 -4.9,-3.6 -6.9,-1.2 L 210,565 c -1.6,1.9 -4.6,1.9 -6.2,0 l -18.4,-21.6 c -2,-2.4 -5.9,-1.7 -6.9,1.2 l -9.8,26.6 c -0.9,2.4 -3.7,3.4 -5.9,2.1 l -24.7,-14.1 c -2.7,-1.5 -6.1,0.4 -6.1,3.5 l -0.1,28.4 c 0,2.5 -2.3,4.4 -4.8,4 l -28,-4.8 c -3.1,-0.5 -5.6,2.5 -4.5,5.4 l 9.6,26.7 c 0.9,2.4 -0.6,4.9 -3.1,5.4 l -27.9,5.1 c -3.1,0.6 -4.4,4.2 -2.4,6.6 l 18.1,21.8 c 1.6,1.9 1.1,4.9 -1.1,6.1 l -24.5,14.3 c -2.7,1.6 -2.7,5.5 0,7 L 87.8,703 c 2.2,1.3 2.7,4.2 1.1,6.1 l -18.1,21.8 c -2,2.4 -0.7,6.1 2.4,6.6 l 27.9,5.1 c 2.5,0.5 4,3 3.1,5.4 l -9.5,27 c -1.1,2.9 1.5,5.9 4.5,5.4 l 28,-4.8 c 2.5,-0.4 4.8,1.5 4.8,4 l 0.1,28.4 c 0,3.1 3.4,5.1 6.1,3.5 l 24.7,-14.1 c 2.2,-1.2 5,-0.2 5.9,2.1 l 9.8,26.6 c 1.1,2.9 4.9,3.6 6.9,1.2 l 18.4,-21.6 c 1.6,-1.9 4.6,-1.9 6.2,0 l 18.4,21.6 c 2,2.4 5.9,1.7 6.9,-1.2 l 9.8,-26.6 c 0.9,-2.4 3.7,-3.4 5.9,-2.1 l 24.7,14.1 c 2.7,1.5 6.1,-0.4 6.1,-3.5 l 0.1,-28.4 c 0,-2.5 2.3,-4.4 4.8,-4 l 28,4.8 c 3.1,0.5 5.6,-2.5 4.5,-5.4 l -9.6,-26.7 c -0.9,-2.4 0.6,-4.9 3.1,-5.4 l 27.9,-5.1 c 3.1,-0.6 4.4,-4.2 2.4,-6.6 L 325,709.3 c -1.6,-1.9 -1.1,-4.9 1.1,-6.1 l 24.5,-14.3 c 2.6,-1.6 2.6,-5.5 0,-7 z M 206.9,791.3 C 148.4,791.3 101,743.9 101,685.4 c 0,-58.5 47.4,-105.9 105.9,-105.9 58.5,0 105.9,47.4 105.9,105.9 0,58.5 -47.4,105.9 -105.9,105.9 z" />
	<circle
   style="fill:#f7bc00"
   id="circle22"
   r="92"
   cy="685.40002"
   cx="206.89999" />
</g>
<g
   transform="translate(-61.375,-127.37574)"
   clip-path="url(#clipPath1030)"
   id="g30">
	<path
   style="fill:#ffe817"
   id="path26"
   d="m 683.2,681.9 -24.5,-14.3 c -2.2,-1.3 -2.7,-4.2 -1.1,-6.1 l 18.1,-21.8 c 2,-2.4 0.7,-6.1 -2.4,-6.6 L 645.4,628 c -2.5,-0.5 -4,-3 -3.1,-5.4 l 9.6,-26.7 c 1.1,-2.9 -1.5,-5.9 -4.5,-5.4 l -28,4.8 c -2.5,0.4 -4.8,-1.5 -4.8,-4 l -0.1,-28.4 c 0,-3.1 -3.4,-5.1 -6.1,-3.5 l -24.7,14.1 c -2.2,1.2 -5,0.2 -5.9,-2.1 L 568,544.8 c -1.1,-2.9 -4.9,-3.6 -6.9,-1.2 L 542.7,565 c -1.6,1.9 -4.6,1.9 -6.2,0 l -18.4,-21.6 c -2,-2.4 -5.9,-1.7 -6.9,1.2 l -9.8,26.6 c -0.9,2.4 -3.7,3.4 -5.9,2.1 l -24.7,-14.1 c -2.7,-1.5 -6.1,0.4 -6.1,3.5 l -0.1,28.4 c 0,2.5 -2.3,4.4 -4.8,4 l -28,-4.8 c -3.1,-0.5 -5.6,2.5 -4.5,5.4 l 9.6,26.7 c 0.9,2.4 -0.6,4.9 -3.1,5.4 l -27.9,5.1 c -3.1,0.6 -4.4,4.2 -2.4,6.6 l 18.1,21.8 c 1.6,1.9 1.1,4.9 -1.1,6.1 L 396,681.9 c -2.7,1.6 -2.7,5.5 0,7 l 24.5,14.3 c 2.2,1.3 2.7,4.2 1.1,6.1 l -18.1,21.8 c -2,2.4 -0.7,6.1 2.4,6.6 l 27.9,5.1 c 2.5,0.5 4,3 3.1,5.4 l -9.6,26.7 c -1.1,2.9 1.5,5.9 4.5,5.4 l 28,-4.8 c 2.5,-0.4 4.8,1.5 4.8,4 l 0.1,28.4 c 0,3.1 3.4,5.1 6.1,3.5 l 24.7,-14.1 c 2.2,-1.2 5,-0.2 5.9,2.1 l 9.8,26.6 c 1.1,2.9 4.9,3.6 6.9,1.2 l 18.4,-21.6 c 1.6,-1.9 4.6,-1.9 6.2,0 l 18.4,21.6 c 2,2.4 5.9,1.7 6.9,-1.2 l 9.8,-26.6 c 0.9,-2.4 3.7,-3.4 5.9,-2.1 l 24.7,14.1 c 2.7,1.5 6.1,-0.4 6.1,-3.5 l 0.1,-28.4 c 0,-2.5 2.3,-4.4 4.8,-4 l 28,4.8 c 3.1,0.5 5.6,-2.5 4.5,-5.4 l -9.6,-26.7 c -0.9,-2.4 0.6,-4.9 3.1,-5.4 l 27.9,-5.1 c 3.1,-0.6 4.4,-4.2 2.4,-6.6 l -18.1,-21.8 c -1.6,-1.9 -1.1,-4.9 1.1,-6.1 l 24.5,-14.3 c 2.7,-1.6 2.7,-5.5 0,-7 z M 539.6,791.3 c -58.5,0 -105.9,-47.4 -105.9,-105.9 0,-58.5 47.4,-105.9 105.9,-105.9 58.5,0 105.9,47.4 105.9,105.9 0,58.5 -47.4,105.9 -105.9,105.9 z" />
	<circle
   style="fill:#f7bc00"
   id="circle28"
   r="92"
   cy="685.40002"
   cx="539.59998" />
</g>
<g
   transform="translate(-61.375,-127.37574)"
   clip-path="url(#clipPath1026)"
   id="g36">
	<path
   style="fill:#ffe817"
   id="path32"
   d="m 1015.9,681.9 -24.5,-14.3 c -2.2,-1.3 -2.7,-4.2 -1.1,-6.1 l 18.1,-21.8 c 2,-2.4 0.7,-6.1 -2.4,-6.6 L 978.1,628 c -2.5,-0.5 -4,-3 -3.1,-5.4 l 9.6,-26.7 c 1.1,-2.9 -1.5,-5.9 -4.5,-5.4 l -28,4.8 c -2.5,0.4 -4.8,-1.5 -4.8,-4 l -0.1,-28.4 c 0,-3.1 -3.4,-5.1 -6.1,-3.5 l -24.7,14.1 c -2.2,1.2 -5,0.2 -5.9,-2.1 l -9.8,-26.6 c -1.1,-2.9 -4.9,-3.6 -6.9,-1.2 L 875.4,565 c -1.6,1.9 -4.6,1.9 -6.2,0 l -18.4,-21.6 c -2,-2.4 -5.9,-1.7 -6.9,1.2 l -9.8,26.6 c -0.9,2.4 -3.7,3.4 -5.9,2.1 l -24.7,-14.1 c -2.7,-1.5 -6.1,0.4 -6.1,3.5 l -0.1,28.4 c 0,2.5 -2.3,4.4 -4.8,4 l -28,-4.8 c -3.1,-0.5 -5.6,2.5 -4.5,5.4 l 9.6,26.7 c 0.9,2.4 -0.6,4.9 -3.1,5.4 l -27.9,5.1 c -3.1,0.6 -4.4,4.2 -2.4,6.6 l 18.1,21.8 c 1.6,1.9 1.1,4.9 -1.1,6.1 l -24.5,14.3 c -2.7,1.6 -2.7,5.5 0,7 l 24.5,14.3 c 2.2,1.3 2.7,4.2 1.1,6.1 l -18.1,21.8 c -2,2.4 -0.7,6.1 2.4,6.6 l 27.9,5.1 c 2.5,0.5 4,3 3.1,5.4 l -9.6,27 c -1.1,2.9 1.5,5.9 4.5,5.4 l 28,-4.8 c 2.5,-0.4 4.8,1.5 4.8,4 l 0.1,28.4 c 0,3.1 3.4,5.1 6.1,3.5 l 24.7,-14.1 c 2.2,-1.2 5,-0.2 5.9,2.1 l 9.8,26.6 c 1.1,2.9 4.9,3.6 6.9,1.2 l 18.4,-21.6 c 1.6,-1.9 4.6,-1.9 6.2,0 l 18.4,21.6 c 2,2.4 5.9,1.7 6.9,-1.2 l 9.8,-26.6 c 0.9,-2.4 3.7,-3.4 5.9,-2.1 l 24.7,14.1 c 2.7,1.5 6.1,-0.4 6.1,-3.5 l 0.1,-28.4 c 0,-2.5 2.3,-4.4 4.8,-4 l 28,4.8 c 3.1,0.5 5.6,-2.5 4.5,-5.4 L 975,748.3 c -0.9,-2.4 0.6,-4.9 3.1,-5.4 l 27.9,-5.1 c 3.1,-0.6 4.4,-4.2 2.4,-6.6 l -18.1,-21.8 c -1.6,-1.9 -1.1,-4.9 1.1,-6.1 l 24.5,-14.3 c 2.7,-1.7 2.7,-5.6 0,-7.1 z M 872.3,791.3 c -58.5,0 -105.9,-47.4 -105.9,-105.9 0,-58.5 47.4,-105.9 105.9,-105.9 58.5,0 105.9,47.4 105.9,105.9 0,58.5 -47.5,105.9 -105.9,105.9 z" />
	<circle
   style="fill:#f7bc00"
   id="circle34"
   r="92"
   cy="685.40002"
   cx="872.29999" />
</g>
<g
   transform="translate(-61.375,-127.37574)"
   clip-path="url(#clipPath1022)"
   id="g42">
	<path
   style="fill:#ffe817"
   id="path38"
   d="M 1348.5,681.9 1324,667.6 c -2.2,-1.3 -2.7,-4.2 -1.1,-6.1 l 18.1,-21.8 c 2,-2.4 0.7,-6.1 -2.4,-6.6 l -27.9,-5.1 c -2.5,-0.5 -4,-3 -3.1,-5.4 l 9.6,-26.7 c 1.1,-2.9 -1.5,-5.9 -4.5,-5.4 l -28,4.8 c -2.5,0.4 -4.8,-1.5 -4.8,-4 l -0.1,-28.4 c 0,-3.1 -3.4,-5.1 -6.1,-3.5 l -24.7,14.1 c -2.2,1.2 -5,0.2 -5.9,-2.1 l -9.8,-26.6 c -1.1,-2.9 -4.9,-3.6 -6.9,-1.2 L 1208,565 c -1.6,1.9 -4.6,1.9 -6.2,0 l -18.4,-21.6 c -2,-2.4 -5.9,-1.7 -6.9,1.2 l -9.8,26.6 c -0.9,2.4 -3.7,3.4 -5.9,2.1 l -24.7,-14.1 c -2.7,-1.5 -6.1,0.4 -6.1,3.5 l -0.1,28.4 c 0,2.5 -2.3,4.4 -4.8,4 l -28,-4.8 c -3.1,-0.5 -5.6,2.5 -4.5,5.4 l 9.6,26.7 c 0.9,2.4 -0.6,4.9 -3.1,5.4 l -27.9,5.1 c -3.1,0.6 -4.4,4.2 -2.4,6.6 l 18.1,21.8 c 1.6,1.9 1.1,4.9 -1.1,6.1 l -24.5,14.3 c -2.7,1.6 -2.7,5.5 0,7 l 24.5,14.3 c 2.2,1.3 2.7,4.2 1.1,6.1 l -18.1,21.8 c -2,2.4 -0.7,6.1 2.4,6.6 l 27.9,5.1 c 2.5,0.5 4,3 3.1,5.4 l -9.6,26.7 c -1.1,2.9 1.5,5.9 4.5,5.4 l 28,-4.8 c 2.5,-0.4 4.8,1.5 4.8,4 l 0.1,28.4 c 0,3.1 3.4,5.1 6.1,3.5 l 24.7,-14.1 c 2.2,-1.2 5,-0.2 5.9,2.1 l 9.8,26.6 c 1.1,2.9 4.9,3.6 6.9,1.2 l 18.4,-21.6 c 1.6,-1.9 4.6,-1.9 6.2,0 l 18.4,21.6 c 2,2.4 5.9,1.7 6.9,-1.2 l 9.8,-26.6 c 0.9,-2.4 3.7,-3.4 5.9,-2.1 l 24.7,14.1 c 2.7,1.5 6.1,-0.4 6.1,-3.5 l 0.1,-28.4 c 0,-2.5 2.3,-4.4 4.8,-4 l 28,4.8 c 3.1,0.5 5.6,-2.5 4.5,-5.4 l -9.6,-26.7 c -0.9,-2.4 0.6,-4.9 3.1,-5.4 l 27.9,-5.1 c 3.1,-0.6 4.4,-4.2 2.4,-6.6 l -18.1,-21.8 c -1.6,-1.9 -1.1,-4.9 1.1,-6.1 l 24.5,-14.3 c 2.7,-1.4 2.7,-5.3 0,-6.8 z m -143.6,109.4 c -58.5,0 -105.9,-47.4 -105.9,-105.9 0,-58.5 47.4,-105.9 105.9,-105.9 58.5,0 105.9,47.4 105.9,105.9 0,58.5 -47.4,105.9 -105.9,105.9 z" />
	<circle
   style="fill:#f7bc00"
   id="circle40"
   r="92"
   cy="685.40002"
   cx="1204.9" />
</g>
<g
   transform="matrix(1.0070526,0,0,1.0070525,-397.80073,-129.9337)"
   clip-path="url(#clipPath1018)"
   id="g66">
	<g
   id="g46">
		<circle
   style="fill:#32578e"
   id="circle44"
   r="92"
   cy="275.20001"
   cx="539.59998" />
	</g>
	<circle
   style="fill:#0f315b"
   id="circle48"
   r="12.4"
   cy="217"
   cx="552" />
	<circle
   style="fill:#0f315b"
   id="circle50"
   r="7.5"
   cy="221.3"
   cx="489.79999" />
	<circle
   style="fill:#0f315b"
   id="circle52"
   r="5.6999998"
   cy="344.70001"
   cx="557.70001" />
	<circle
   style="fill:#0f315b"
   id="circle54"
   r="5.6999998"
   cy="264.89999"
   cx="497.29999" />
	<circle
   style="fill:#0f315b"
   id="circle56"
   r="5.6999998"
   cy="308.79999"
   cx="497.29999" />
	<circle
   style="fill:#0f315b"
   id="circle58"
   r="7.5"
   cy="247.2"
   cx="518.20001" />
	<circle
   style="fill:#0f315b"
   id="circle60"
   r="9.8999996"
   cy="264.89999"
   cx="470.10001" />
	<circle
   style="fill:#0f315b"
   id="circle62"
   r="9.8999996"
   cy="289.70001"
   cx="604.20001" />
	<circle
   style="fill:#0f315b"
   id="circle64"
   r="9.8999996"
   cy="329"
   cx="493.89999" />
</g>
<g
   transform="translate(-61.375,-127.37574)"
   clip-path="url(#clipPath1014)"
   id="g74">
	<g
   id="g70">
		<path
   style="fill:#32578e"
   id="path68"
   d="m 872.3,183.2 c -6.5,0 -12.8,0.7 -18.9,2 44.5,6.5 79.5,45.5 79.5,91.6 0,43 -30.6,79.9 -70.8,89.8 3.4,0.4 6.8,0.6 10.2,0.6 50.8,0 92,-41.2 92,-92 0,-50.8 -41.2,-92 -92,-92 z" />
	</g>
	<path
   style="fill:#0f315b"
   id="path72"
   d="m 936.9,279.7 c -1.5,0 -2.9,0.3 -4.2,0.9 -0.2,5.7 -1,11.2 -2.3,16.6 1.7,1.5 4,2.4 6.4,2.4 5.5,0 9.9,-4.5 9.9,-9.9 0,-5.4 -4.3,-10 -9.8,-10 z" />
</g>
<g
   transform="translate(-61.375,-127.37574)"
   clip-path="url(#clipPath1010)"
   id="g86">
	<g
   id="g78">
		<path
   style="fill:#32578e"
   id="path76"
   d="m 1204.9,183.2 c -14.9,0 -28.9,3.5 -41.4,9.8 34.4,13.6 59.2,47.4 59.2,86.2 0,35.3 -20.6,66.5 -50.3,82.1 10.1,3.8 21,5.9 32.5,5.9 50.8,0 92,-41.2 92,-92 0,-50.8 -41.2,-92 -92,-92 z" />
	</g>
	<circle
   style="fill:#0f315b"
   id="circle80"
   r="12.4"
   cy="217"
   cx="1217.3" />
	<circle
   style="fill:#0f315b"
   id="circle82"
   r="5.6999998"
   cy="344.70001"
   cx="1223" />
	<circle
   style="fill:#0f315b"
   id="circle84"
   r="9.8999996"
   cy="289.70001"
   cx="1269.6" />
</g>
<g
   transform="translate(-61.375,-127.37574)"
   clip-path="url(#clipPath1006)"
   id="g110">
	<g
   id="g90">
		<circle
   style="fill:#32578e"
   id="circle88"
   r="92"
   cy="685.40002"
   cx="539.59998" />
	</g>
	<circle
   style="fill:#0f315b"
   id="circle92"
   r="12.4"
   cy="627.20001"
   cx="552" />
	<circle
   style="fill:#0f315b"
   id="circle94"
   r="7.5"
   cy="631.5"
   cx="489.79999" />
	<circle
   style="fill:#0f315b"
   id="circle96"
   r="5.6999998"
   cy="754.90002"
   cx="557.70001" />
	<circle
   style="fill:#0f315b"
   id="circle98"
   r="5.6999998"
   cy="675.09998"
   cx="497.29999" />
	<circle
   style="fill:#0f315b"
   id="circle100"
   r="5.6999998"
   cy="719"
   cx="497.29999" />
	<circle
   style="fill:#0f315b"
   id="circle102"
   r="7.5"
   cy="657.40002"
   cx="518.20001" />
	<circle
   style="fill:#0f315b"
   id="circle104"
   r="9.8999996"
   cy="675.09998"
   cx="470.10001" />
	<circle
   style="fill:#0f315b"
   id="circle106"
   r="9.8999996"
   cy="699.90002"
   cx="604.20001" />
	<circle
   style="fill:#0f315b"
   id="circle108"
   r="9.8999996"
   cy="739.29999"
   cx="493.89999" />
</g>
<g
   transform="translate(-61.375,-127.37574)"
   clip-path="url(#clipPath1002)"
   id="g128">
	<g
   id="g114">
		<path
   style="fill:#32578e"
   id="path112"
   d="m 206.9,593.4 c -22.4,0 -43,8 -59,21.4 21.2,17.1 34.9,43.1 34.9,71.9 0,28 -13,53.5 -33.2,70.6 15.7,12.5 35.6,20 57.3,20 50.8,0 92,-41.2 92,-92 0,-50.8 -41.2,-91.9 -92,-91.9 z" />
	</g>
	<circle
   style="fill:#0f315b"
   id="circle116"
   r="12.4"
   cy="627.20001"
   cx="219.3" />
	<path
   style="fill:#0f315b"
   id="path118"
   d="m 164.6,632 c 0,-0.2 0,-0.3 0,-0.5 0,-3.8 -2.9,-7 -6.6,-7.4 2.3,2.5 4.5,5.2 6.6,7.9 z" />
	<circle
   style="fill:#0f315b"
   id="circle120"
   r="5.6999998"
   cy="754.90002"
   cx="225" />
	<path
   style="fill:#0f315b"
   id="path122"
   d="m 185.6,650 c -4.1,0 -7.5,3.3 -7.5,7.5 0,0.1 0,0.3 0,0.4 0.4,1.2 0.8,2.4 1.1,3.6 1.3,2.1 3.7,3.5 6.3,3.5 4.1,0 7.5,-3.3 7.5,-7.5 0,-4.2 -3.3,-7.5 -7.4,-7.5 z" />
	<circle
   style="fill:#0f315b"
   id="circle124"
   r="9.8999996"
   cy="699.90002"
   cx="271.60001" />
	<path
   style="fill:#0f315b"
   id="path126"
   d="m 158.5,748.8 c 0.9,0.2 1.8,0.4 2.7,0.4 5.5,0 9.9,-4.5 9.9,-9.9 0,-2 -0.6,-3.8 -1.6,-5.3 -3.1,5.3 -6.8,10.2 -11,14.8 z" />
</g>
<g
   transform="translate(-61.375,-127.37574)"
   clip-path="url(#clipPath998)"
   id="g150">
	<g
   id="g132">
		<path
   style="fill:#32578e"
   id="path130"
   d="m 851.3,686.3 c 0,-38 23.9,-71.3 57.4,-85.4 -11.2,-4.8 -23.5,-7.5 -36.4,-7.5 -50.8,0 -92,41.2 -92,92 0,50.8 41.2,92 92,92 12.1,0 23.7,-2.3 34.3,-6.6 -32.4,-14.6 -55.3,-47.3 -55.3,-84.5 z" />
	</g>
	<path
   style="fill:#0f315b"
   id="path134"
   d="m 885.6,614.9 c -0.3,0 -0.6,0 -1,0 -6.8,0 -12.4,5.5 -12.4,12.4 0,0.3 0,0.7 0.1,1 4,-5 8.4,-9.5 13.3,-13.4 z" />
	<circle
   style="fill:#0f315b"
   id="circle136"
   r="7.5"
   cy="631.5"
   cx="822.5" />
	<path
   style="fill:#0f315b"
   id="path138"
   d="m 885.2,757.4 c 0.8,1.5 2.2,2.7 3.9,3 -1.3,-0.9 -2.6,-1.9 -3.9,-3 z" />
	<circle
   style="fill:#0f315b"
   id="circle140"
   r="5.6999998"
   cy="675.09998"
   cx="829.90002" />
	<circle
   style="fill:#0f315b"
   id="circle142"
   r="5.6999998"
   cy="719"
   cx="829.90002" />
	<path
   style="fill:#0f315b"
   id="path144"
   d="m 857.4,653.8 c -1.3,-2.3 -3.7,-3.8 -6.5,-3.8 -4.1,0 -7.5,3.3 -7.5,7.5 0,4.1 3.3,7.5 7.5,7.5 1.1,0 2.2,-0.3 3.2,-0.7 0.9,-3.7 2,-7.1 3.3,-10.5 z" />
	<circle
   style="fill:#0f315b"
   id="circle146"
   r="9.8999996"
   cy="675.09998"
   cx="802.79999" />
	<circle
   style="fill:#0f315b"
   id="circle148"
   r="9.8999996"
   cy="739.29999"
   cx="826.59998" />
</g>
<g
   transform="translate(-61.375,-127.37574)"
   clip-path="url(#clipPath994)"
   id="g174">
	<g
   id="g154">
		<circle
   style="fill:#32578e"
   id="circle152"
   r="85.900002"
   cy="685.40002"
   cx="1204.9" />
	</g>
	<circle
   style="fill:#0f315b"
   id="circle156"
   r="11.6"
   cy="631"
   cx="1216.5" />
	<circle
   style="fill:#0f315b"
   id="circle158"
   r="7"
   cy="635.09998"
   cx="1158.4" />
	<circle
   style="fill:#0f315b"
   id="circle160"
   r="5.3000002"
   cy="750.29999"
   cx="1221.8" />
	<circle
   style="fill:#0f315b"
   id="circle162"
   r="5.3000002"
   cy="675.79999"
   cx="1165.4" />
	<circle
   style="fill:#0f315b"
   id="circle164"
   r="5.3000002"
   cy="716.79999"
   cx="1165.4" />
	<circle
   style="fill:#0f315b"
   id="circle166"
   r="7"
   cy="659.29999"
   cx="1185" />
	<circle
   style="fill:#0f315b"
   id="circle168"
   r="9.3000002"
   cy="675.79999"
   cx="1140" />
	<circle
   style="fill:#0f315b"
   id="circle170"
   r="9.3000002"
   cy="698.90002"
   cx="1265.3" />
	<circle
   style="fill:#0f315b"
   id="circle172"
   r="9.3000002"
   cy="735.70001"
   cx="1162.2" />
</g>
</svg>