<svg xmlns="http://www.w3.org/2000/svg" height="875.439" width="2598.276"><defs><clipPath ><path d="M251.724 537.874h2598.35v875.44H251.724z" fill="#222b00"/></clipPath><clipPath id="B"><path d="M251.724 537.874h2598.35v875.44H251.724z" fill="#222b00"/></clipPath><clipPath id="C"><path d="M251.724 537.874h2598.35v875.44H251.724z" fill="#222b00"/></clipPath><clipPath ><path d="M251.724 537.874h2598.35v875.44H251.724z" fill="#222b00"/></clipPath><clipPath id="E"><path d="M251.724 537.874h2598.35v875.44H251.724z" fill="#222b00"/></clipPath><clipPath id="F"><path d="M251.724 537.874h2598.35v875.44H251.724z" fill="#222b00"/></clipPath><clipPath ><path d="M251.724 537.874h2598.35v875.44H251.724z" fill="#222b00"/></clipPath><clipPath ><path d="M251.724 537.874h2598.35v875.44H251.724z" fill="#222b00"/></clipPath></defs><linearGradient y2="1044.494" x2="1425" y1="-6.199" x1="1425" gradientUnits="userSpaceOnUse"><stop offset=".003" stop-color="#f79678"/><stop offset="1" stop-color="#ffdcd6"/></linearGradient><g clip-path="url(#F)" transform="matrix(1.012758 0 0 1.206006 -268.325624 -751.63642)"><path d="M2273.552 841.143l173.903-45.36 372.412 117.136-207.792 448.458H255.005v-416.67l641.023-225.96 202.035 48.603 139.678-48.603 268.283 160.87 275.465-122.353 104.758 63.442 213.423-58.162z" fill="#ff755d"/><g fill="#ff8a75"><path d="M1214.06 863.107l-117.283-96.068-200.75-48.294zm1002.752-11.167l56-11.13-173.142-78.266zm-365.897-21.724l35.332-9.5-104.758-63.442zM1504.3 894.97v-16.386l-266.56-159.838z"/></g><path d="M1977.7 819.285l-185.344 75.836-325.617-258.203-370.186 223.77-136.73-77.283-589.457 315.49v262.483h2145.137v-153.584z" fill="#e85849"/><g fill="#fa695a"><path d="M1055.044 885.97l-94.9-102.567 136.4 77.283zm1201.556 134.8l-70.36 31.205-208.222-232.68zm-463.925-125.64l-62.616 26.604-263-284.807z"/></g><g fill="#d95244"><path d="M1780.135 999.147l176.538 258.245-80.913-187.173 79.074-13.25 23.185-237.684-185.344 75.836zm-910.27-44.875l90.278-170.868-589.457 315.5L774.24 1225.92l-44.135-154.045 134.242 64.6-86.43-137.328zm424.793 19.878l1.84-106 110.336 89.446 60.225-320.667-454.087 274.486 290.882 133.97-75.397-98.22z"/></g><path d="M466.27 705.985l330.7 205.967 119.332-40.828 923.185 339.013v153.518H237.925L0 900z" fill="#c74b3f"/><path d="M432.113 1070.514l-92.558-8.73v299.593l-101.63 2.28L0 900l466.27-194.015v145.387l-95.904 11.735z" fill="#b8453a"/><path d="M1532.814 1209.407L2049.38 1000.9l114.726 60.893 447.97-198.676 124.086 99.672 113.84-67.8v466.4l-2149.03 2.286z" fill="#c74b3f"/><g fill="#b8453a"><path d="M2042.645 1090.82l6.734-89.93-516.565 208.517-831.844 154.248 1233.463-2.28 43.586-282.6zm414.528 157.006l58.33-95.605-30.965-145.782 61.882-14.292 65.654-129.04-447.97 198.676z"/><path d="M918.872 1323.25l61.316-153.264L872.64 1027.14l65.622 11.198-56.508-125.258 34.558-41.957-374.187 128.023H777.92z"/></g></g><g clip-path="url(#E)" transform="translate(-251.723 -537.874)" fill="#52042c"><path d="M683.947 1671.953l.17-.116.286.1zm380.2 1.475l.105-.067.023.02zm417.452-34.898l.392.17-.502-.112zm91.464-2.368l-.27.057.222-.098zm5.462 11.958l-.245-.14-.105-.177zm858.88-187.222l.578-.257.042.063z"/></g><g clip-path="url(#C)" transform="translate(-251.723 -537.874)" fill="#47001b"><path d="M2672.66 737.488a17.56 17.56 0 0 0 2.5.547l-2.5-.547zm70.15 264.814c.14.302.318.572.473.862l1.265-.248z"/></g><g clip-path="url(#B)" fill="#47001b" transform="translate(-261.612 -615.005)"><path d="M243.614 907.097c-.9.268-1.894.5-3 .66l3-.66zm-84.44 318.763c-.168.364-.382.688-.57 1.037l-1.523-.3z"/></g></svg>