<?xml version="1.0" encoding="UTF-8" standalone="no"?>
<svg
   xmlns:dc="http://purl.org/dc/elements/1.1/"
   xmlns:cc="http://creativecommons.org/ns#"
   xmlns:rdf="http://www.w3.org/1999/02/22-rdf-syntax-ns#"
   xmlns:svg="http://www.w3.org/2000/svg"
   xmlns="http://www.w3.org/2000/svg"
   id="svg80"
   version="1.1"
   width="2598.276"
   height="875.439">
  <metadata
     id="metadata84">
    <rdf:RDF>
      <cc:Work
         rdf:about="">
        <dc:format>image/svg+xml</dc:format>
        <dc:type
           rdf:resource="http://purl.org/dc/dcmitype/StillImage" />
        <dc:title></dc:title>
      </cc:Work>
    </rdf:RDF>
  </metadata>
  <defs
     id="defs30">
    <clipPath
       id="clipPath4">
      <path
         id="path2"
         fill="#222b00"
         d="M251.724 537.874h2598.35v875.44H251.724z" />
    </clipPath>
    <clipPath
       id="B">
      <path
         id="path6"
         fill="#222b00"
         d="M251.724 537.874h2598.35v875.44H251.724z" />
    </clipPath>
    <clipPath
       id="C">
      <path
         id="path9"
         fill="#222b00"
         d="M251.724 537.874h2598.35v875.44H251.724z" />
    </clipPath>
    <clipPath
       id="clipPath14">
      <path
         id="path12"
         fill="#222b00"
         d="M251.724 537.874h2598.35v875.44H251.724z" />
    </clipPath>
    <clipPath
       id="E">
      <path
         id="path16"
         fill="#222b00"
         d="M251.724 537.874h2598.35v875.44H251.724z" />
    </clipPath>
    <clipPath
       id="F">
      <path
         id="path19"
         fill="#222b00"
         d="M251.724 537.874h2598.35v875.44H251.724z" />
    </clipPath>
    <clipPath
       id="clipPath24">
      <path
         id="path22"
         fill="#222b00"
         d="M251.724 537.874h2598.35v875.44H251.724z" />
    </clipPath>
    <clipPath
       id="clipPath28">
      <path
         id="path26"
         fill="#222b00"
         d="M251.724 537.874h2598.35v875.44H251.724z" />
    </clipPath>
  </defs>
  <linearGradient
     id="linearGradient36"
     gradientUnits="userSpaceOnUse"
     x1="1425"
     y1="-6.199"
     x2="1425"
     y2="1044.494">
    <stop
       id="stop32"
       stop-color="#f79678"
       offset=".003" />
    <stop
       id="stop34"
       stop-color="#ffdcd6"
       offset="1" />
  </linearGradient>
  <g
     id="g66"
     transform="matrix(1.012758,0,0,1.206006,-268.32562,-751.63642)"
     clip-path="url(#F)">
    <path
       style="fill:#6c35b1;fill-opacity:1"
       id="path38"
       d="m 2273.552,841.143 173.903,-45.36 372.412,117.136 -207.792,448.458 H 255.005 v -416.67 l 641.023,-225.96 202.035,48.603 139.678,-48.603 268.283,160.87 275.465,-122.353 104.758,63.442 213.423,-58.162 z" />
    <g
       style="fill:#ff8a75"
       id="g42">
      <path
         style="fill:#8542f2;fill-opacity:1"
         id="path40"
         d="m 1214.06,863.107 -117.283,-96.068 -200.75,-48.294 z m 1002.752,-11.167 56,-11.13 -173.142,-78.266 z m -365.897,-21.724 35.332,-9.5 -104.758,-63.442 z M 1504.3,894.97 V 878.584 L 1237.74,718.746 Z" />
    </g>
    <path
       style="fill:#854292;fill-opacity:1"
       id="path44"
       d="m 1977.7,819.285 -185.344,75.836 -325.617,-258.203 -370.186,223.77 -136.73,-77.283 -589.457,315.49 v 262.483 h 2145.137 v -153.584 z" />
    <g
       style="fill:#fa695a"
       id="g48">
      <path
         style="fill:#85479a;fill-opacity:1"
         id="path46"
         d="m 1055.044,885.97 -94.9,-102.567 136.4,77.283 z m 1201.556,134.8 -70.36,31.205 -208.222,-232.68 z m -463.925,-125.64 -62.616,26.604 -263,-284.807 z" />
    </g>
    <g
       style="fill:#d95244"
       id="g52">
      <path
         style="fill:#5f3f8f;fill-opacity:1"
         id="path50"
         d="m 1780.135,999.147 176.538,258.245 -80.913,-187.173 79.074,-13.25 23.185,-237.684 -185.344,75.836 z m -910.27,-44.875 90.278,-170.868 -589.457,315.5 403.554,127.016 -44.135,-154.045 134.242,64.6 -86.43,-137.328 z m 424.793,19.878 1.84,-106 110.336,89.446 60.225,-320.667 -454.087,274.486 290.882,133.97 -75.397,-98.22 z" />
    </g>
    <path
       style="fill:#712f79;fill-opacity:1"
       id="path54"
       d="m 466.27,705.985 330.7,205.967 119.332,-40.828 923.185,339.013 v 153.518 H 237.925 L 0,900 Z" />
    <path
       style="fill:#5f2f79;fill-opacity:1"
       id="path56"
       d="m 432.113,1070.514 -92.558,-8.73 v 299.593 l -101.63,2.28 L 0,900 466.27,705.985 v 145.387 l -95.904,11.735 z" />
    <path
       style="fill:#712f79;fill-opacity:1"
       id="path58"
       d="m 1532.814,1209.407 516.566,-208.507 114.726,60.893 447.97,-198.676 124.086,99.672 113.84,-67.8 v 466.4 l -2149.03,2.286 z" />
    <g
       style="fill:#b8453a"
       id="g64">
      <path
         style="fill:#5f2f79;fill-opacity:1"
         id="path60"
         d="m 2042.645,1090.82 6.734,-89.93 -516.565,208.517 -831.844,154.248 1233.463,-2.28 43.586,-282.6 z m 414.528,157.006 58.33,-95.605 -30.965,-145.782 61.882,-14.292 65.654,-129.04 -447.97,198.676 z" />
      <path
         style="fill:#5f2f79;fill-opacity:1"
         id="path62"
         d="M 918.872,1323.25 980.188,1169.986 872.64,1027.14 938.262,1038.338 881.754,913.08 916.312,871.123 542.125,999.146 H 777.92 Z" />
    </g>
  </g>
  <g
     id="g70"
     fill="#52042c"
     transform="translate(-251.723 -537.874)"
     clip-path="url(#E)">
    <path
       id="path68"
       d="M683.947 1671.953l.17-.116.286.1zm380.2 1.475l.105-.067.023.02zm417.452-34.898l.392.17-.502-.112zm91.464-2.368l-.27.057.222-.098zm5.462 11.958l-.245-.14-.105-.177zm858.88-187.222l.578-.257.042.063z" />
  </g>
  <g
     id="g74"
     fill="#47001b"
     transform="translate(-251.723 -537.874)"
     clip-path="url(#C)">
    <path
       id="path72"
       d="M2672.66 737.488a17.56 17.56 0 0 0 2.5.547l-2.5-.547zm70.15 264.814c.14.302.318.572.473.862l1.265-.248z" />
  </g>
  <g
     id="g78"
     transform="translate(-261.612 -615.005)"
     fill="#47001b"
     clip-path="url(#B)">
    <path
       id="path76"
       d="M243.614 907.097c-.9.268-1.894.5-3 .66l3-.66zm-84.44 318.763c-.168.364-.382.688-.57 1.037l-1.523-.3z" />
  </g>
</svg>
