<?xml version="1.0" encoding="UTF-8" standalone="no"?>
<svg
   xmlns:dc="http://purl.org/dc/elements/1.1/"
   xmlns:cc="http://creativecommons.org/ns#"
   xmlns:rdf="http://www.w3.org/1999/02/22-rdf-syntax-ns#"
   xmlns:svg="http://www.w3.org/2000/svg"
   xmlns="http://www.w3.org/2000/svg"
   id="svg295"
   preserveAspectRatio="xMidYMid meet"
   viewBox="0 0 6000 6000"
   height="600px"
   width="600px"
   version="1.0">
  <metadata
     id="metadata301">
    <rdf:RDF>
      <cc:Work
         rdf:about="">
        <dc:format>image/svg+xml</dc:format>
        <dc:type
           rdf:resource="http://purl.org/dc/dcmitype/StillImage" />
        <dc:title></dc:title>
      </cc:Work>
    </rdf:RDF>
  </metadata>
  <defs
     id="defs299" />
  <g
     style="fill:#000000;stroke:none"
     id="layer101">
    <path
       id="path2"
       d="M 0,3000 V 0 H 3000 6000 V 3000 6000 H 3000 0 Z" />
  </g>
  <g
     style="fill:#370000;stroke:none"
     id="layer102">
    <path
       id="path5"
       d="m 3040,5325 c -8,-2 -62,-11 -119,-20 -174,-28 -349,-82 -518,-161 -40,-19 -74,-34 -77,-34 -2,0 -56,-31 -120,-70 -132.4712,-62.5766 -244.2839,-172.2807 -356,-245 -58,-37 -136,-91 -175,-119 -38,-28 -105,-73 -147,-99 -467,-289 -826,-805 -938,-1347 -27,-134 -43,-379 -36,-538 15,-297 76,-531 211,-808 271,-555 790,-966 1400,-1109 165,-39 233,-45 479,-45 196,0 253,3 343,21 309,59 590,173 813,329 47,33 150,103 230,156 80,53 173,119 208,146 34,26 62,46 62,43 0,-16 171,98 290,193 72,57 220,202 281,274 26,31 57,67 69,80 11,12 33,43 47,68 14,25 37,58 51,75 30,36 202,380 202,404 0,9 4,21 9,27 12,13 67,222 87,329 26,140 31,545 9,683 -33,207 -92,402 -175,579 -22,47 -40,92 -40,99 0,8 -4,14 -9,14 -8,0 -30,35 -91,141 -123.7114,186.2726 -243.1044,312.5288 -403,451 -79.6935,77.443 -181.0726,139.8059 -267,193 -87,56 -303,159 -390,187 -36,12 -90,29 -120,39 -143,46 -255,60 -530,64 -146,2 -272,2 -280,0 z m 495,-1552 c 19,-9 35,-20 35,-24 0,-12 -276,-67 -286,-56 -6,6 99,65 146,83 48,17 63,17 105,-3 z m -658,-320 c -4,-3 -10,-3 -14,0 -3,4 0,7 7,7 7,0 10,-3 7,-7 z m -240,-10 c -4,-3 -10,-3 -14,0 -3,4 0,7 7,7 7,0 10,-3 7,-7 z m 2390,-160 c -4,-3 -7,0 -7,7 0,7 3,10 7,7 3,-4 3,-10 0,-14 z m -1260,-64 c 46,-22 99,-77 86,-89 -36,-31 -649,-147 -670,-127 -2,3 44,24 103,47 59,24 172,76 251,117 80,40 154,73 166,73 11,0 40,-9 64,-21 z m 1270,-16 c -4,-3 -7,0 -7,7 0,7 3,10 7,7 3,-4 3,-10 0,-14 z M 1715,2920 c 3,-5 4,-10 1,-10 -3,0 -8,5 -11,10 -3,6 -4,10 -1,10 3,0 8,-4 11,-10 z m 3322,-67 c -4,-3 -7,0 -7,7 0,7 3,10 7,7 3,-4 3,-10 0,-14 z m -1990,-60 c -4,-3 -10,-3 -14,0 -3,4 0,7 7,7 7,0 10,-3 7,-7 z m 988,-217 c 28,-13 60,-34 72,-47 26,-29 47,-79 36,-90 -15,-14 -378,-98 -513,-119 -195,-29 -583,-61 -570,-47 3,3 61,20 130,37 241,61 459,140 608,222 70,39 140,66 172,67 8,1 38,-10 65,-23 z m -978,-513 c -4,-3 -10,-3 -14,0 -3,4 0,7 7,7 7,0 10,-3 7,-7 z m -660,-10 c -4,-3 -10,-3 -14,0 -3,4 0,7 7,7 7,0 10,-3 7,-7 z m 530,0 c -4,-3 -10,-3 -14,0 -3,4 0,7 7,7 7,0 10,-3 7,-7 z m 1533,-477 c 0,-2 -8,-10 -17,-17 -16,-13 -17,-12 -4,4 13,16 21,21 21,13 z m -40,-40 c 0,-3 -5,-8 -12,-12 -7,-4 -8,-3 -4,4 7,12 16,16 16,8 z" />
  </g>
  <g
     style="fill:#340099;stroke:none"
     id="layer104">
    <path
       id="path227"
       d="m 2735,5103 c -123,-16 -279,-48 -385,-78 -108,-31 -293,-105 -340,-135 -8,-6 -24,-14 -36,-19 -31,-14 -218,-136 -299,-195 -38,-28 -105,-73 -147,-99 -467,-289 -826,-805 -938,-1347 -27,-134 -43,-379 -36,-538 15,-297 76,-531 211,-808 271,-555 790,-966 1400,-1109 165,-39 233,-45 479,-45 196,0 253,3 343,21 309,59 590,173 813,329 47,33 155,106 240,163 193,129 280,199 394,313 466,467 681,1131 581,1796 -55,365 -222,729 -474,1030 -319,381 -808,647 -1307,713 -105,14 -416,19 -499,8 z m 805,-1333 c 34,-17 48,-36 56,-75 1,-5 5,-18 9,-27 4,-11 -1,-22 -18,-32 -67,-45 -379,-135 -552,-161 -108,-16 -316,-27 -460,-26 -85,1 -347,20 -353,25 -1,2 66,6 150,9 374,16 720,104 953,241 58,34 132,65 158,66 10,0 35,-9 57,-20 z m 225,-550 c 72,-35 98,-76 97,-158 0,-31 -19,-44 -140,-92 -256,-101 -588,-173 -877,-190 -401,-24 -683,-1 -980,80 -67,18 -170,59 -163,64 2,2 50,-5 108,-15 180,-31 463,-44 657,-31 417,29 720,111 1070,288 80,41 154,74 166,74 11,0 39,-9 62,-20 z m 270,-644 c 28,-13 60,-34 72,-47 30,-33 54,-104 51,-151 -2,-37 -3,-38 -77,-69 -237,-99 -515,-172 -837,-219 -206,-30 -278,-34 -619,-34 -265,0 -334,3 -474,22 -283,38 -481,87 -551,134 -34,24 -77,74 -69,82 2,3 38,-2 79,-10 252,-48 430,-64 731,-64 417,0 743,47 1078,155 140,45 284,105 379,157 70,39 140,66 172,67 8,1 38,-10 65,-23 z" />
  </g>
  <g
     stroke="none"
     fill="#00ff03"
     id="layer106">
    <path
       id="path289"
       d="M2735 5103 c-123 -16 -279 -48 -385 -78 -108 -31 -293 -105 -340 -135 -8 -6 -24 -14 -36 -19 -30 -13 -216 -135 -304 -198 -78 -57 -194 -172 -310 -308 -238 -280 -409 -660 -464 -1030 -88 -587 77 -1175 459 -1640 323 -394 772 -646 1300 -732 80 -13 164 -17 310 -17 222 1 362 19 563 75 104 28 141 41 229 80 24 11 45 19 48 19 39 0 309 165 450 275 99 77 248 225 328 325 361 451 520 1049 432 1632 -55 365 -222 729 -474 1030 -319 381 -808 647 -1307 713 -105 14 -416 19 -499 8z m1122 -1110 c23 -11 42 -30 56 -59 42 -88 -5 -146 -203 -249 -49 -25 -93 -45 -97 -44 -4 1 -33 -9 -63 -23 -111 -52 -357 -119 -518 -143 -229 -34 -687 -31 -832 5 -19 4 -66 11 -105 15 -109 11 -255 43 -290 65 -86 53 -70 193 26 221 37 11 64 9 248 -24 113 -21 229 -39 256 -41 28 -2 75 -7 105 -11 76 -9 486 12 593 30 212 38 395 100 630 216 66 32 129 59 139 59 11 0 36 -7 55 -17z m260 -569 c45 -34 77 -104 70 -151 -14 -81 -80 -129 -367 -261 -261 -121 -644 -212 -975 -232 -351 -21 -567 -9 -834 46 -238 49 -304 78 -333 146 -40 94 6 192 102 218 42 11 62 9 155 -20 65 -20 266 -53 435 -71 196 -21 567 0 805 47 278 54 364 86 815 302 36 17 86 7 127 -24z m255 -630 c73 -38 120 -134 104 -215 -16 -86 -144 -172 -411 -277 -258 -102 -504 -166 -821 -212 -206 -30 -278 -34 -619 -34 -265 0 -334 3 -474 22 -283 38 -481 87 -551 134 -59 41 -74 71 -75 147 0 87 32 142 103 174 57 25 99 26 172 4 105 -32 322 -70 500 -87 139 -14 544 -14 695 0 445 41 808 139 1145 311 125 64 162 69 232 33z" />
  </g>
  <g
     style="fill:#01fe52;stroke:none"
     id="layer107">
    <path
       id="path292"
       d="m 2400,4880 c -255,-43 -403,-81 -540,-138 -52,-22 -126,-53 -165,-68 -59,-25 -84,-44 -169,-129 -204,-206 -323,-369 -435,-596 -287,-579 -291,-1247 -11,-1828 267,-553 761,-958 1354,-1111 196,-51 311,-64 531,-64 222,1 362,19 563,75 104,28 141,41 229,80 24,11 45,19 48,19 3,0 39,15 79,34 61,29 91,53 194,157 208,212 319,366 433,604 74,154 123,298 154,449 144,716 -62,1417 -564,1917 -222,220 -486,388 -777,492 -105,38 -306,85 -409,96 -134,15 -452,21 -515,11 z m 1457,-887 c 23,-11 42,-30 56,-59 42,-88 -5,-146 -204,-249 -49,-25 -93,-44 -97,-41 -4,2 -9,-5 -9,-16 -3,-29 -28,-53 -108,-103 -201,-126 -497,-227 -785,-269 -308,-44 -532,-42 -892,9 -279,40 -343,60 -378,118 -34,56 -20,122 36,166 34,27 81,27 216,2 200,-37 239,-43 244,-38 3,3 -18,10 -47,16 -98,21 -139,62 -139,139 0,55 31,99 81,113 37,11 64,9 248,-24 113,-21 229,-39 256,-41 28,-2 75,-7 105,-11 76,-9 486,12 593,30 212,38 395,100 630,216 66,32 129,59 139,59 11,0 36,-7 55,-17 z m 260,-569 c 45,-34 77,-104 70,-151 -8,-48 -49,-98 -105,-129 -26,-14 -78,-43 -117,-65 -38,-21 -77,-39 -85,-39 -8,0 -21,-14 -28,-30 -43,-96 -434,-280 -789,-369 -415,-105 -956,-122 -1358,-42 -225,45 -297,70 -334,117 -56,71 -48,157 18,217 54,49 92,54 201,27 50,-12 93,-20 96,-17 3,2 -3,20 -12,40 -38,79 15,182 106,207 42,11 62,9 155,-20 65,-20 266,-53 435,-71 196,-21 567,0 805,47 278,54 364,86 815,302 36,17 86,7 127,-24 z m 255,-630 c 50,-26 86,-73 99,-130 28,-126 -21,-183 -258,-300 -40,-20 -73,-42 -73,-48 0,-34 -114,-110 -275,-183 -299,-137 -583,-215 -995,-275 -139,-20 -197,-22 -550,-22 l -395,-1 -189,33 c -232,41 -405,84 -451,112 -141,87 -113,284 48,345 46,17 53,17 115,2 37,-8 69,-14 71,-12 2,3 4,29 5,58 2,73 40,131 104,160 57,25 99,26 172,4 105,-32 322,-70 500,-87 139,-14 544,-14 695,0 445,41 808,139 1145,311 125,64 162,69 232,33 z" />
  </g>
</svg>
